<svg width="25" height="25" viewBox="0 0 25 25" fill="none" xmlns="http://www.w3.org/2000/svg">
<path d="M12.5 0C5.61125 0 0 5.61125 0 12.5C0 19.3888 5.61125 25 12.5 25C19.3888 25 25 19.3888 25 12.5C25 5.61125 19.3888 0 12.5 0ZM12.5 2.5C18.0377 2.5 22.5 6.96235 22.5 12.5C22.5 17.5181 18.8317 21.6413 14.0234 22.373V15.481H16.9336L17.3901 12.5244H14.0234V10.9082C14.0234 9.67945 14.4237 8.58887 15.5737 8.58887H17.4194V6.0083C17.0944 5.96455 16.4086 5.86914 15.1123 5.86914C12.4048 5.86914 10.8179 7.29914 10.8179 10.5566V12.5244H8.03467V15.481H10.8179V22.3486C6.08786 21.5511 2.5 17.4628 2.5 12.5C2.5 6.96235 6.96235 2.5 12.5 2.5Z" fill="#7E7E7E"/>
</svg>
