<svg width="25" height="26" viewBox="0 0 25 26" fill="none" xmlns="http://www.w3.org/2000/svg">
<path d="M12.5159 0C5.6327 0 0.0293583 5.59851 0.0268581 12.4817C0.025608 14.6819 0.601894 16.8298 1.6945 18.7225L0 25.0024L6.54116 23.4569C8.36509 24.452 10.4183 24.9743 12.5085 24.9756H12.5134C19.3953 24.9756 24.9962 19.3758 25 12.4939C25.0025 9.15732 23.705 6.02025 21.3473 3.66002C18.9896 1.30104 15.8562 0.00125012 12.5159 0ZM12.5134 2.50024C15.1837 2.50149 17.6931 3.54259 19.5795 5.42777C21.466 7.31546 22.5023 9.82369 22.4998 12.4915C22.4973 17.997 18.019 22.4753 12.511 22.4753C10.8446 22.4741 9.1939 22.0557 7.74001 21.2618L6.89764 20.8028L5.96738 21.0226L3.5062 21.6037L4.10685 19.372L4.37787 18.3709L3.86024 17.4724C2.98765 15.9623 2.52585 14.2356 2.5271 12.4817C2.5296 6.97865 7.00914 2.50024 12.5134 2.50024ZM8.09649 6.7194C7.88772 6.7194 7.55017 6.79754 7.26389 7.11007C6.97761 7.42135 6.17003 8.17527 6.17003 9.71042C6.17003 11.2456 7.28831 12.7295 7.44457 12.9383C7.59959 13.1458 9.60312 16.3956 12.7747 17.6458C15.4099 18.6846 15.9452 18.4796 16.5177 18.4271C17.0903 18.3758 18.3648 17.6738 18.6249 16.945C18.8849 16.2162 18.8855 15.5893 18.808 15.4605C18.7305 15.3305 18.5223 15.253 18.2098 15.0967C17.8985 14.9404 16.3645 14.1872 16.0782 14.0834C15.7919 13.9796 15.5826 13.9271 15.375 14.2397C15.1675 14.5522 14.5711 15.253 14.3886 15.4605C14.2061 15.6693 14.0248 15.6973 13.7123 15.5411C13.3997 15.3835 12.3949 15.0532 11.2023 13.9906C10.2747 13.1643 9.64877 12.1447 9.46625 11.8322C9.28499 11.5209 9.44916 11.35 9.60543 11.1949C9.74544 11.0549 9.91552 10.8305 10.0718 10.648C10.2268 10.4655 10.2806 10.3355 10.3843 10.1279C10.4881 9.92042 10.435 9.73728 10.3575 9.58101C10.2799 9.42475 9.67297 7.88389 9.39545 7.26633C9.16167 6.74753 8.91477 6.73548 8.69225 6.72673C8.51099 6.71923 8.30401 6.7194 8.09649 6.7194Z" fill="#7E7E7E"/>
</svg>
