<svg width="834" height="526" viewBox="0 0 834 526" fill="none" xmlns="http://www.w3.org/2000/svg">
<path d="M834 0H0V526H834V0Z" fill="#1D1D1D"/>
<path d="M444 519C586.489 519 702 403.489 702 261C702 118.511 586.489 3 444 3C301.511 3 186 118.511 186 261C186 403.489 301.511 519 444 519Z" fill="url(#paint0_radial_2003_122)"/>
<g opacity="0.2">
<g opacity="0.4">
<g opacity="0.4">
<path opacity="0.4" d="M660.278 296.854L629.406 243.404L660.278 189.955H721.93L752.801 243.404L721.93 296.854H660.278Z" stroke="white" stroke-width="6" stroke-miterlimit="10"/>
</g>
</g>
</g>
<g opacity="0.2">
<g opacity="0.4">
<g opacity="0.4">
<path opacity="0.4" d="M553.375 235.202L522.596 181.753L553.375 128.303H615.027L645.899 181.753L615.027 235.202H553.375Z" fill="white" stroke="white" stroke-width="6" stroke-miterlimit="10"/>
</g>
<g opacity="0.4">
<path opacity="0.4" d="M553.375 111.899L522.596 58.4497L553.375 5H615.027L645.899 58.4497L615.027 111.899H553.375Z" stroke="white" stroke-width="6" stroke-miterlimit="10"/>
</g>
</g>
<g opacity="0.4">
<g opacity="0.4">
<path opacity="0.4" d="M446.477 296.854L415.697 243.404L446.477 189.954H508.128L539 243.404L508.128 296.854H446.477Z" stroke="white" stroke-width="6" stroke-miterlimit="10"/>
</g>
<g opacity="0.4">
<path opacity="0.4" d="M446.477 173.551L415.697 120.101L446.477 66.6514H508.128L539 120.101L508.128 173.551H446.477Z" fill="white" stroke="white" stroke-width="6" stroke-miterlimit="10"/>
</g>
</g>
</g>
<g opacity="0.2">
<g opacity="0.4">
<g opacity="0.4">
<path opacity="0.4" d="M339.672 358.505L308.8 305.056L339.672 251.606H401.323L432.103 305.056L401.323 358.505H339.672Z" fill="white" stroke="white" stroke-width="6" stroke-miterlimit="10"/>
</g>
<g opacity="0.4">
<path opacity="0.4" d="M339.672 235.203L308.8 181.753L339.672 128.303H401.323L432.103 181.753L401.323 235.203H339.672Z" stroke="white" stroke-width="6" stroke-miterlimit="10"/>
</g>
<g opacity="0.4">
<path opacity="0.4" d="M339.672 111.9L308.8 58.4502L339.672 5.00049H401.323L432.103 58.4502L401.323 111.9H339.672Z" stroke="white" stroke-width="6" stroke-miterlimit="10"/>
</g>
</g>
<g opacity="0.4">
<g opacity="0.4">
<path opacity="0.4" d="M232.772 173.551L201.9 120.101L232.772 66.6516H294.424L325.203 120.101L294.424 173.551H232.772Z" fill="white" stroke="white" stroke-width="6" stroke-miterlimit="10"/>
</g>
</g>
</g>
<g opacity="0.2">
<g opacity="0.4">
<g opacity="0.4">
<path opacity="0.4" d="M125.872 358.506L95 305.056L125.872 251.606H187.523L218.395 305.056L187.523 358.506H125.872Z" fill="white" stroke="white" stroke-width="6" stroke-miterlimit="10"/>
</g>
<g opacity="0.4">
<path opacity="0.4" d="M125.872 235.202L95 181.753L125.872 128.303H187.523L218.395 181.753L187.523 235.202H125.872Z" stroke="white" stroke-width="6" stroke-miterlimit="10"/>
</g>
</g>
</g>
<path d="M212 344H222L218.667 500H215.333L212 344Z" fill="#2A2A2A"/>
<path d="M222 344H248L245 463.01L219 500L222 344Z" fill="#CECECE"/>
<path d="M670 344H639V500H670V344Z" fill="#2B2B2B"/>
<path d="M639 344H612V463.01L639 500V344Z" fill="#CECECE"/>
<path d="M731.825 334H151.175C147.213 334 144 336.239 144 339C144 341.761 147.213 344 151.175 344H731.825C735.787 344 739 341.761 739 339C739 336.239 735.787 334 731.825 334Z" fill="#AB784B"/>
<path d="M182.176 308H700.824L734 334H149L182.176 308Z" fill="#D2D2D2"/>
<path d="M417.183 73.3668L393.193 67.5238L399.071 43.4978L423.062 49.3408L417.183 73.3668ZM394.491 66.7328L416.396 72.0678L421.763 50.1318L399.859 44.7968L394.491 66.7328Z" fill="#CCCCCC"/>
<path d="M413.598 36.8118L393.841 31.9998L389 51.7858L408.757 56.5978L413.598 36.8118Z" fill="#2874F0"/>
<path d="M492.183 133.367L468.193 127.524L474.071 103.498L498.062 109.341L492.183 133.367ZM469.491 126.733L491.396 132.068L496.763 110.132L474.859 104.797L469.491 126.733Z" fill="#CCCCCC"/>
<path d="M488.598 96.8118L468.841 91.9998L464 111.786L483.757 116.598L488.598 96.8118Z" fill="#2874F0"/>
<path d="M297.183 128.367L273.193 122.524L279.071 98.4978L303.062 104.341L297.183 128.367ZM274.491 121.733L296.396 127.068L301.763 105.132L279.859 99.7968L274.491 121.733Z" fill="#CCCCCC"/>
<path d="M293.598 91.8118L273.841 86.9998L269 106.786L288.757 111.598L293.598 91.8118Z" fill="#2874F0"/>
<path d="M572.183 64.3668L548.193 58.5238L554.071 34.4978L578.062 40.3408L572.183 64.3668ZM549.491 57.7328L571.396 63.0678L576.763 41.1318L554.859 35.7968L549.491 57.7328Z" fill="#CCCCCC"/>
<path d="M568.598 27.8118L548.841 22.9998L544 42.7858L563.757 47.5978L568.598 27.8118Z" fill="#2874F0"/>
<path d="M476.67 17.6278L478.298 35.7128L496.383 34.0848L494.755 15.9998L476.67 17.6278Z" fill="#CECECE"/>
<path d="M466.621 28.9499L488.58 26.9739L490.557 48.9339L468.598 50.9099L466.621 28.9499ZM487.712 28.0139L467.661 29.8189L469.466 49.8699L489.517 48.0649L487.712 28.0139Z" fill="#CCCCCC"/>
<path d="M581.67 96.6278L583.298 114.713L601.383 113.085L599.755 94.9998L581.67 96.6278Z" fill="#CECECE"/>
<path d="M571.621 107.95L593.58 105.974L595.557 127.934L573.598 129.91L571.621 107.95ZM592.712 107.014L572.661 108.819L574.466 128.87L594.517 127.065L592.712 107.014Z" fill="#CCCCCC"/>
<path d="M368.67 94.6278L370.298 112.713L388.383 111.085L386.755 92.9998L368.67 94.6278Z" fill="#CECECE"/>
<path d="M358.621 105.95L380.58 103.974L382.557 125.934L360.598 127.91L358.621 105.95ZM379.712 105.014L359.661 106.819L361.466 126.87L381.517 125.065L379.712 105.014Z" fill="#CCCCCC"/>
<path d="M322.381 168.133L304.91 173.08L309.857 190.551L327.328 185.604L322.381 168.133Z" fill="#CECECE"/>
<path d="M309.395 160.353L315.402 181.568L294.187 187.575L288.18 166.36L309.395 160.353ZM314.219 180.906L308.734 161.537L289.364 167.021L294.849 186.391L314.219 180.906Z" fill="#CCCCCC"/>
<path d="M295.67 13.6278L297.298 31.7128L315.383 30.0848L313.755 11.9998L295.67 13.6278Z" fill="#CECECE"/>
<path d="M285.621 24.9499L307.58 22.9739L309.557 44.9339L287.598 46.9099L285.621 24.9499ZM306.712 24.0139L286.661 25.8189L288.466 45.8699L308.517 44.0649L306.712 24.0139Z" fill="#CCCCCC"/>
<path d="M326.094 295.82H223.668C221.672 295.82 220 294.202 220 292.152V278.668C220 276.672 221.618 275 223.668 275H326.094C328.09 275 329.762 276.618 329.762 278.668V292.152C329.762 294.202 328.143 295.82 326.094 295.82Z" fill="#50B56F"/>
<path d="M326.094 295.82H223.668C221.672 295.82 220 294.202 220 292.152V278.668C220 276.672 221.618 275 223.668 275H326.094C328.09 275 329.762 276.618 329.762 278.668V292.152C329.762 294.202 328.143 295.82 326.094 295.82Z" stroke="#1F3969" stroke-width="1.93852" stroke-miterlimit="10" stroke-linecap="round" stroke-linejoin="round"/>
<path opacity="0.28" d="M357.565 275.05H341.384V283.141C341.384 288.211 345.483 292.364 350.607 292.364H361.233C361.233 292.31 361.233 292.256 361.233 292.202V278.718C361.233 276.668 359.614 275.05 357.565 275.05Z" fill="#1F3969" stroke="#1F3969" stroke-width="1.93852" stroke-miterlimit="10" stroke-linecap="round" stroke-linejoin="round"/>
<path d="M356.844 300.29H238.183C238.884 302.016 239.261 304.174 239.261 306.439C239.261 308.704 238.884 310.808 238.183 312.588H356.79C356.089 310.862 355.711 308.704 355.711 306.439C355.765 304.12 356.143 302.016 356.844 300.29Z" fill="#CECECE"/>
<path d="M360.08 297H235V300.236H360.08V297Z" fill="#5F5AFF"/>
<path d="M360.08 296H235V299.236H360.08V296Z" stroke="#1F3969" stroke-width="1.93852" stroke-miterlimit="10" stroke-linecap="round" stroke-linejoin="round"/>
<path d="M359.08 312H234V315.236H359.08V312Z" fill="#F6F9FD"/>
<path d="M360.08 312.534H235V315.77H360.08V312.534Z" fill="#5F5AFF"/>
<path d="M360.08 311.534H235V314.77H360.08V311.534Z" stroke="#1F3969" stroke-width="1.93852" stroke-miterlimit="10" stroke-linecap="round" stroke-linejoin="round"/>
<path d="M451.793 304.015L450.175 285.838H423.53L421.912 304.015C421.534 308.222 418.999 312.267 415.008 315.503V315.557H458.697V315.503C454.705 312.267 452.17 308.222 451.793 304.015Z" fill="#BFCFE2"/>
<path opacity="0.28" d="M423.53 285.838L422.56 296.733H451.146L450.175 285.838H423.53Z" fill="#1F3969" stroke="#1F3969" stroke-width="1.93852" stroke-miterlimit="10" stroke-linecap="round" stroke-linejoin="round"/>
<path d="M451.793 304.015L450.175 285.838H423.53L421.912 304.015C421.534 308.222 418.999 312.267 415.008 315.503V315.557H458.697V315.503C454.705 312.267 452.17 308.222 451.793 304.015Z" stroke="#1F3969" stroke-width="1.93852" stroke-miterlimit="10" stroke-linecap="round" stroke-linejoin="round"/>
<path d="M522.072 288.535H351.632C348.072 288.535 345.159 285.622 345.159 282.062V170.952C345.159 167.392 348.072 164.48 351.632 164.48H522.072C525.632 164.48 528.545 167.392 528.545 170.952V282.062C528.545 285.676 525.632 288.535 522.072 288.535Z" fill="white"/>
<path d="M522.072 288.535H351.632C348.072 288.535 345.159 285.622 345.159 282.062V170.952C345.159 167.392 348.072 164.48 351.632 164.48H522.072C525.632 164.48 528.545 167.392 528.545 170.952V282.062C528.545 285.676 525.632 288.535 522.072 288.535Z" fill="#BFCFE2"/>
<path d="M522.072 288.535H351.632C348.072 288.535 345.159 285.622 345.159 282.062V170.952C345.159 167.392 348.072 164.48 351.632 164.48H522.072C525.632 164.48 528.545 167.392 528.545 170.952V282.062C528.545 285.676 525.632 288.535 522.072 288.535Z" stroke="#1F3969" stroke-width="1.93852" stroke-miterlimit="10" stroke-linecap="round" stroke-linejoin="round"/>
<path d="M519.405 267.838V173.664L354.358 173.664V267.838H519.405Z" fill="#F6F9FD"/>
<path opacity="0.28" d="M360.262 164.48V239.236C360.262 241.61 362.203 243.551 364.577 243.551H466.571C468.945 243.551 470.886 241.61 470.886 239.236V164.48H360.262Z" fill="#1F3969" stroke="#1F3969" stroke-width="1.93852" stroke-miterlimit="10" stroke-linecap="round" stroke-linejoin="round"/>
<path d="M519.405 267.838V173.664L354.358 173.664V267.838H519.405Z" stroke="#1F3969" stroke-width="1.93852" stroke-miterlimit="10" stroke-linecap="round" stroke-linejoin="round"/>
<path d="M429.625 278.125H444.134" stroke="#1F3969" stroke-width="1.93852" stroke-miterlimit="10" stroke-linecap="round" stroke-linejoin="round"/>
<path d="M471.426 237.618H369.431C367.058 237.618 365.116 235.676 365.116 233.303V153.369C365.116 150.995 367.058 149.054 369.431 149.054H471.426C473.799 149.054 475.741 150.995 475.741 153.369V233.357C475.741 235.73 473.799 237.618 471.426 237.618Z" fill="#2D425E"/>
<path d="M475.741 159.518H365.116V153.315C365.116 150.942 367.058 149 369.431 149H471.426C473.799 149 475.741 150.942 475.741 153.315V159.518Z" stroke="#1F3969" stroke-width="1.93852" stroke-miterlimit="10" stroke-linecap="round" stroke-linejoin="round"/>
<path d="M475.741 161.567H365.116V153.315C365.116 150.942 367.058 149 369.431 149H471.426C473.799 149 475.741 150.942 475.741 153.315V161.567Z" fill="#D0DDF0"/>
<path d="M475.741 161.567H365.116V153.315C365.116 150.942 367.058 149 369.431 149H471.426C473.799 149 475.741 150.942 475.741 153.315V161.567Z" stroke="#1F3969" stroke-width="1.93852" stroke-miterlimit="10" stroke-linecap="round" stroke-linejoin="round"/>
<path d="M475.741 161.567H365.116V153.315C365.116 150.942 367.058 149 369.431 149H471.426C473.799 149 475.741 150.942 475.741 153.315V161.567Z" stroke="#1F3969" stroke-width="1.93852" stroke-miterlimit="10" stroke-linecap="round" stroke-linejoin="round"/>
<path d="M471.426 237.618H369.431C367.058 237.618 365.116 235.676 365.116 233.303V153.369C365.116 150.995 367.058 149.054 369.431 149.054H471.426C473.799 149.054 475.741 150.995 475.741 153.369V233.357C475.741 235.73 473.799 237.618 471.426 237.618Z" stroke="#1F3969" stroke-width="1.93852" stroke-miterlimit="10" stroke-linecap="round" stroke-linejoin="round"/>
<path opacity="0.28" d="M524.661 256.712H462.094C459.721 256.712 457.779 254.77 457.779 252.397V186.109C457.779 183.735 459.721 181.794 462.094 181.794H524.661C527.034 181.794 528.976 183.735 528.976 186.109V252.397C528.976 254.824 527.034 256.712 524.661 256.712Z" fill="#1F3969" stroke="#1F3969" stroke-width="1.93852" stroke-miterlimit="10" stroke-linecap="round" stroke-linejoin="round"/>
<path d="M528.975 252.936H466.409C464.035 252.936 462.094 250.995 462.094 248.621V182.333C462.094 179.96 464.035 178.018 466.409 178.018H528.975C531.349 178.018 533.29 179.96 533.29 182.333V248.621C533.29 251.049 531.349 252.936 528.975 252.936Z" fill="#2AA1FF"/>
<path d="M528.975 252.936H466.409C464.035 252.936 462.094 250.995 462.094 248.621V182.333C462.094 179.96 464.035 178.018 466.409 178.018H528.975C531.349 178.018 533.29 179.96 533.29 182.333V248.621C533.29 251.049 531.349 252.936 528.975 252.936Z" stroke="#1F3969" stroke-width="1.93852" stroke-miterlimit="10" stroke-linecap="round" stroke-linejoin="round"/>
<path opacity="0.34" d="M519.644 198.568H475.632C474.068 198.568 472.827 197.327 472.827 195.763V191.556C472.827 189.992 474.068 188.751 475.632 188.751H519.644C521.209 188.751 522.449 189.992 522.449 191.556V195.763C522.449 197.327 521.209 198.568 519.644 198.568Z" stroke="white" stroke-width="0.969262" stroke-miterlimit="10" stroke-linecap="round" stroke-linejoin="round"/>
<g opacity="0.34">
<path opacity="0.34" d="M500.336 214.371H475.741C474.177 214.371 472.937 213.131 472.937 211.567V207.36C472.937 205.795 474.177 204.555 475.741 204.555H500.336C501.901 204.555 503.141 205.795 503.141 207.36V211.567C503.087 213.131 501.847 214.371 500.336 214.371Z" stroke="white" stroke-width="0.969262" stroke-miterlimit="10" stroke-linecap="round" stroke-linejoin="round"/>
<path opacity="0.34" d="M519.698 214.371H510.151C508.587 214.371 507.347 213.131 507.347 211.567V207.36C507.347 205.795 508.587 204.555 510.151 204.555H519.698C521.262 204.555 522.503 205.795 522.503 207.36V211.567C522.503 213.131 521.262 214.371 519.698 214.371Z" stroke="white" stroke-width="0.969262" stroke-miterlimit="10" stroke-linecap="round" stroke-linejoin="round"/>
</g>
<path d="M472.881 230.768H522.449" stroke="white" stroke-width="0.969262" stroke-miterlimit="10" stroke-linecap="round" stroke-linejoin="round"/>
<path d="M472.881 236.594H522.449" stroke="white" stroke-width="0.969262" stroke-miterlimit="10" stroke-linecap="round" stroke-linejoin="round"/>
<path d="M472.881 242.419H503.086" stroke="white" stroke-width="0.969262" stroke-miterlimit="10" stroke-linecap="round" stroke-linejoin="round"/>
<path d="M375.957 157.468C377.149 157.468 378.115 156.502 378.115 155.31C378.115 154.119 377.149 153.153 375.957 153.153C374.766 153.153 373.8 154.119 373.8 155.31C373.8 156.502 374.766 157.468 375.957 157.468Z" fill="#1F3969"/>
<path d="M383.454 157.468C384.646 157.468 385.612 156.502 385.612 155.31C385.612 154.119 384.646 153.153 383.454 153.153C382.263 153.153 381.297 154.119 381.297 155.31C381.297 156.502 382.263 157.468 383.454 157.468Z" fill="#1F3969"/>
<path d="M390.951 157.468C392.143 157.468 393.109 156.502 393.109 155.31C393.109 154.119 392.143 153.153 390.951 153.153C389.76 153.153 388.794 154.119 388.794 155.31C388.794 156.502 389.76 157.468 390.951 157.468Z" fill="#1F3969"/>
<path d="M428.653 171.545H435.665" stroke="white" stroke-width="2.90779" stroke-miterlimit="10" stroke-linecap="round" stroke-linejoin="round"/>
<path d="M393.108 171.545H423.475" stroke="#7BFFA0" stroke-width="2.90779" stroke-miterlimit="10" stroke-linecap="round" stroke-linejoin="round"/>
<path d="M378.114 171.546H388.794" stroke="#9169FF" stroke-width="2.90779" stroke-miterlimit="10" stroke-linecap="round" stroke-linejoin="round"/>
<path d="M392.029 224.673H415.222" stroke="#9169FF" stroke-width="2.90779" stroke-miterlimit="10" stroke-linecap="round" stroke-linejoin="round"/>
<path d="M378.114 224.673H385.611" stroke="#7BFFA0" stroke-width="2.90779" stroke-miterlimit="10" stroke-linecap="round" stroke-linejoin="round"/>
<path d="M423.476 178.18H427.844" stroke="white" stroke-width="2.90779" stroke-miterlimit="10" stroke-linecap="round" stroke-linejoin="round"/>
<path d="M403.627 178.18H418.298" stroke="#9169FF" stroke-width="2.90779" stroke-miterlimit="10" stroke-linecap="round" stroke-linejoin="round"/>
<path d="M383.454 178.18H398.395" stroke="#FFC47D" stroke-width="2.90779" stroke-miterlimit="10" stroke-linecap="round" stroke-linejoin="round"/>
<path d="M406.594 184.814H419.485" stroke="white" stroke-width="2.90779" stroke-miterlimit="10" stroke-linecap="round" stroke-linejoin="round"/>
<path d="M390.412 184.814H402.548" stroke="#FF5757" stroke-width="2.90779" stroke-miterlimit="10" stroke-linecap="round" stroke-linejoin="round"/>
<path d="M408.319 191.448H410.962" stroke="white" stroke-width="2.90779" stroke-miterlimit="10" stroke-linecap="round" stroke-linejoin="round"/>
<path d="M397.641 191.448H403.628" stroke="#9169FF" stroke-width="2.90779" stroke-miterlimit="10" stroke-linecap="round" stroke-linejoin="round"/>
<path d="M383.454 191.448H393.109" stroke="#7BFFA0" stroke-width="2.90779" stroke-miterlimit="10" stroke-linecap="round" stroke-linejoin="round"/>
<path d="M404.166 198.136H421.372" stroke="#FFC47D" stroke-width="2.90779" stroke-miterlimit="10" stroke-linecap="round" stroke-linejoin="round"/>
<path d="M383.454 198.136H398.88" stroke="#FF5757" stroke-width="2.90779" stroke-miterlimit="10" stroke-linecap="round" stroke-linejoin="round"/>
<path d="M424.069 204.771H433.4" stroke="#9169FF" stroke-width="2.90779" stroke-miterlimit="10" stroke-linecap="round" stroke-linejoin="round"/>
<path d="M404.166 204.771H419.107" stroke="#FF5757" stroke-width="2.90779" stroke-miterlimit="10" stroke-linecap="round" stroke-linejoin="round"/>
<path d="M390.412 204.771H398.88" stroke="#7BFFA0" stroke-width="2.90779" stroke-miterlimit="10" stroke-linecap="round" stroke-linejoin="round"/>
<path d="M410.962 211.405H419.106" stroke="white" stroke-width="2.90779" stroke-miterlimit="10" stroke-linecap="round" stroke-linejoin="round"/>
<path d="M390.412 211.405H405.353" stroke="#9169FF" stroke-width="2.90779" stroke-miterlimit="10" stroke-linecap="round" stroke-linejoin="round"/>
<path d="M432.159 218.039H441.49" stroke="white" stroke-width="2.90779" stroke-miterlimit="10" stroke-linecap="round" stroke-linejoin="round"/>
<path d="M403.627 218.039H427.09" stroke="#FFC47D" stroke-width="2.90779" stroke-miterlimit="10" stroke-linecap="round" stroke-linejoin="round"/>
<path d="M383.454 218.039H398.395" stroke="white" stroke-width="2.90779" stroke-miterlimit="10" stroke-linecap="round" stroke-linejoin="round"/>
<path d="M239.531 303.012H355.765" stroke="#1F3969" stroke-width="0.969262" stroke-miterlimit="10" stroke-linecap="round" stroke-linejoin="round"/>
<path d="M239.531 307.327H355.765" stroke="#1F3969" stroke-width="0.969262" stroke-miterlimit="10" stroke-linecap="round" stroke-linejoin="round"/>
<path d="M356.844 299.29H238.183C238.884 301.016 239.261 303.174 239.261 305.439C239.261 307.704 238.884 309.808 238.183 311.588H356.79C356.089 309.862 355.711 307.704 355.711 305.439C355.765 303.12 356.143 301.016 356.844 299.29Z" stroke="#1F3969" stroke-width="1.93852" stroke-miterlimit="10" stroke-linecap="round" stroke-linejoin="round"/>
<path d="M477.635 314.55H396.919V316.198H477.635V314.55Z" fill="#1F3969"/>
<path d="M477.635 314.55H396.919V316.198H477.635V314.55Z" stroke="#1F3969" stroke-width="1.93852" stroke-miterlimit="10" stroke-linecap="round" stroke-linejoin="round"/>
<path d="M293.313 252.707H252.921C252.42 252.707 251.969 252.858 251.619 253.208L241.846 261.728C240.944 262.529 240.944 263.933 241.846 264.684L251.619 273.354C251.969 273.655 252.42 273.955 252.921 273.955H293.313C295.618 273.955 297.522 271.851 297.522 269.545V256.766C297.472 254.561 295.618 252.707 293.313 252.707ZM251.819 265.687C250.466 265.687 249.313 264.584 249.313 263.181C249.313 261.778 250.416 260.675 251.819 260.675C253.222 260.675 254.325 261.778 254.325 263.181C254.325 264.584 253.222 265.687 251.819 265.687Z" fill="white"/>
<path d="M273.969 252.707H262.192V274.005H273.969V252.707Z" fill="#F09F54"/>
<path d="M285.745 252.707H273.969V274.005H285.745V252.707Z" fill="#ED8B3B"/>
<path d="M292.26 274.005H285.745V252.707H292.46C295.217 252.707 297.522 254.962 297.522 257.769V268.794C297.472 271.65 295.116 274.005 292.26 274.005Z" fill="#FF6C37"/>
<path opacity="0.4" d="M294.415 253.76C294.215 253.709 294.014 253.709 293.814 253.709H253.422C252.921 253.709 252.47 253.86 252.12 254.211L242.347 262.73C241.445 263.532 241.445 264.935 242.347 265.687L248.461 271.049L255.076 272.702C255.377 272.803 255.728 272.803 256.078 272.803C256.73 272.803 257.331 272.652 257.933 272.352L293.914 254.01C294.064 253.96 294.265 253.86 294.415 253.76ZM252.32 266.689C250.967 266.689 249.814 265.586 249.814 264.183C249.814 262.78 250.917 261.677 252.32 261.677C253.723 261.677 254.826 262.78 254.826 264.183C254.826 265.586 253.723 266.689 252.32 266.689Z" fill="#848484"/>
<path d="M293.313 252.707H252.921C252.42 252.707 251.969 252.858 251.619 253.208L241.846 261.728C240.944 262.529 240.944 263.933 241.846 264.684L251.619 273.354C251.969 273.655 252.42 273.955 252.921 273.955H293.313C295.618 273.955 297.522 271.851 297.522 269.545V256.766C297.472 254.561 295.618 252.707 293.313 252.707ZM251.819 265.687C250.466 265.687 249.313 264.584 249.313 263.181C249.313 261.778 250.416 260.675 251.819 260.675C253.222 260.675 254.325 261.778 254.325 263.181C254.325 264.584 253.222 265.687 251.819 265.687Z" stroke="#1F3969" stroke-width="1.93852" stroke-miterlimit="10" stroke-linecap="round" stroke-linejoin="round"/>
<path d="M273.969 252.707H262.192V274.005H273.969V252.707Z" stroke="#1F3969" stroke-width="1.93852" stroke-miterlimit="10" stroke-linecap="round" stroke-linejoin="round"/>
<path d="M285.745 252.707H273.969V274.005H285.745V252.707Z" stroke="#1F3969" stroke-width="1.93852" stroke-miterlimit="10" stroke-linecap="round" stroke-linejoin="round"/>
<path d="M292.26 274.005H285.745V252.707H292.46C295.217 252.707 297.522 254.962 297.522 257.769V268.794C297.472 271.65 295.116 274.005 292.26 274.005Z" stroke="#1F3969" stroke-width="1.93852" stroke-miterlimit="10" stroke-linecap="round" stroke-linejoin="round"/>
<path d="M282.888 232.461L246.907 250.803C246.456 251.003 246.155 251.404 245.955 251.855L241.144 263.882C240.693 264.985 241.344 266.238 242.497 266.538L255.076 269.746C255.527 269.846 256.028 269.796 256.479 269.595L292.46 251.254C294.515 250.202 295.316 247.696 294.264 245.691L288.451 234.316C287.399 232.211 284.893 231.409 282.888 232.461Z" fill="white"/>
<path d="M276.112 235.894L265.621 241.247L275.187 259.996L285.678 254.643L276.112 235.894Z" fill="#8D91DB"/>
<path d="M282.888 232.461L246.907 250.803C246.456 251.003 246.155 251.404 245.955 251.855L241.144 263.882C240.693 264.985 241.344 266.238 242.497 266.538L255.076 269.746C255.527 269.846 256.028 269.796 256.479 269.595L292.46 251.254C294.515 250.202 295.316 247.696 294.264 245.691L288.451 234.316C287.399 232.211 284.893 231.409 282.888 232.461Z" stroke="#1F3969" stroke-width="1.93852" stroke-miterlimit="10" stroke-linecap="round" stroke-linejoin="round"/>
<path d="M250.716 263.582C252.321 263.582 253.623 262.28 253.623 260.675C253.623 259.07 252.321 257.769 250.716 257.769C249.111 257.769 247.81 259.07 247.81 260.675C247.81 262.28 249.111 263.582 250.716 263.582Z" fill="#444E59"/>
<path d="M265.599 241.274L255.108 246.626L264.675 265.376L275.165 260.023L265.599 241.274Z" fill="#BECCD5" stroke="#1F3969" stroke-width="1.93852" stroke-miterlimit="10" stroke-linecap="round" stroke-linejoin="round"/>
<path d="M265.599 241.274L255.108 246.626L264.675 265.376L275.165 260.023L265.599 241.274Z" stroke="#1F3969" stroke-width="1.93852" stroke-miterlimit="10" stroke-linecap="round" stroke-linejoin="round"/>
<path d="M276.112 235.894L265.621 241.247L275.187 259.996L285.678 254.643L276.112 235.894Z" stroke="#1F3969" stroke-width="1.93852" stroke-miterlimit="10" stroke-linecap="round" stroke-linejoin="round"/>
<path d="M291.658 251.605L285.645 254.662L276.073 235.919L282.087 232.862C284.542 231.61 287.549 232.562 288.852 235.067L293.863 244.89C295.116 247.345 294.114 250.352 291.658 251.605Z" fill="#6567C3"/>
<path d="M291.658 251.605L285.645 254.662L276.073 235.919L282.087 232.862C284.542 231.61 287.549 232.562 288.852 235.067L293.863 244.89C295.116 247.345 294.114 250.352 291.658 251.605Z" stroke="#1F3969" stroke-width="1.93852" stroke-miterlimit="10" stroke-linecap="round" stroke-linejoin="round"/>
<path d="M335.84 323.722H308.155C305.892 323.722 304.041 321.87 304.041 319.608V264.114C304.041 261.851 305.892 260 308.155 260H335.84C338.103 260 339.954 261.851 339.954 264.114V319.608C339.954 321.911 338.103 323.722 335.84 323.722Z" fill="white"/>
<path d="M340.53 279.129H304.041V264.031C304.041 261.81 305.851 260 308.072 260H336.251C338.596 260 340.489 261.933 340.489 264.237V279.129H340.53Z" fill="#6567C3"/>
<path d="M335.84 323.722H308.155C305.892 323.722 304.041 321.87 304.041 319.608V264.114C304.041 261.851 305.892 260 308.155 260H335.84C338.103 260 339.954 261.851 339.954 264.114V319.608C339.954 321.911 338.103 323.722 335.84 323.722Z" stroke="#1F3969" stroke-width="1.93852" stroke-miterlimit="10" stroke-linecap="round" stroke-linejoin="round"/>
<path d="M335.881 323.721H308.278C305.933 323.721 304 321.788 304 319.443V311.545H339.954V319.649C339.954 321.911 338.103 323.721 335.881 323.721Z" fill="#BBBFC2"/>
<path d="M335.964 323.721H308.278C305.933 323.721 304 321.788 304 319.443V311.545H339.954V319.731C339.954 321.953 338.144 323.721 335.964 323.721Z" stroke="#1F3969" stroke-width="1.93852" stroke-miterlimit="10" stroke-linecap="round" stroke-linejoin="round"/>
<path d="M322.265 319.443C323.401 319.443 324.322 318.522 324.322 317.386C324.322 316.25 323.401 315.33 322.265 315.33C321.129 315.33 320.208 316.25 320.208 317.386C320.208 318.522 321.129 319.443 322.265 319.443Z" fill="#444E59"/>
<path opacity="0.3" d="M312.146 285.505H332.426" stroke="#1F3969" stroke-width="1.93852" stroke-miterlimit="10" stroke-linecap="round" stroke-linejoin="round"/>
<path opacity="0.3" d="M316.177 291.881H328.929" stroke="#1F3969" stroke-width="1.93852" stroke-miterlimit="10" stroke-linecap="round" stroke-linejoin="round"/>
<path opacity="0.3" d="M312.146 297.682H332.426" stroke="#1F3969" stroke-width="1.93852" stroke-miterlimit="10" stroke-linecap="round" stroke-linejoin="round"/>
<path opacity="0.62" d="M322.265 275.632C324.809 275.632 326.872 273.569 326.872 271.025C326.872 268.48 324.809 266.417 322.265 266.417C319.72 266.417 317.657 268.48 317.657 271.025C317.657 273.569 319.72 275.632 322.265 275.632Z" fill="white"/>
<path d="M328.93 304.058C328.93 305.333 327.901 306.361 326.626 306.361H317.946C316.671 306.361 315.643 305.333 315.643 304.058C315.643 302.783 316.671 301.754 317.946 301.754H326.626C327.901 301.713 328.93 302.741 328.93 304.058Z" fill="#ED8B3B"/>
<path d="M633.459 314.498H519.17V245.821C519.17 243.792 520.821 242.141 522.849 242.141H629.827C631.808 242.141 633.412 243.745 633.412 245.726V314.498H633.459Z" fill="#BBBFC2"/>
<path d="M633.742 314.639H519.5V245.773C519.5 243.698 521.198 242 523.273 242H629.969C632.044 242 633.742 243.698 633.742 245.773V314.639Z" stroke="#1F3969" stroke-width="1.93852" stroke-miterlimit="10" stroke-linecap="round" stroke-linejoin="round"/>
<path opacity="0.71" d="M627.481 308.567V248.097L525.833 248.097V308.567H627.481Z" fill="#5D5D5D"/>
<path opacity="0.32" d="M550.679 297.046H541.905C541.386 297.046 540.962 296.621 540.962 296.102V266.056C540.962 265.537 541.386 265.113 541.905 265.113H550.679C551.197 265.113 551.622 265.537 551.622 266.056V296.149C551.622 296.621 551.197 297.046 550.679 297.046Z" fill="#848484"/>
<path opacity="0.32" d="M614.025 303.13H563.366C562.329 303.13 561.479 302.281 561.479 301.244V262.518C561.479 261.481 562.329 260.632 563.366 260.632H614.025C615.063 260.632 615.912 261.481 615.912 262.518V301.244C615.912 302.281 615.11 303.13 614.025 303.13Z" fill="#848484"/>
<path d="M627.392 308.281V248.33L525.838 248.33V308.281H627.392Z" stroke="#1F3969" stroke-width="1.93852" stroke-miterlimit="10" stroke-linecap="round" stroke-linejoin="round"/>
<path d="M646.194 314.639H507V319.073C507 321.149 508.698 322.847 510.773 322.847H642.421C644.496 322.847 646.194 321.149 646.194 319.073V314.639Z" fill="white"/>
<path opacity="0.8" d="M512.329 323.13H640.911C643.505 323.13 645.628 321.149 646.099 318.46H507.094C507.565 321.149 509.735 323.13 512.329 323.13Z" fill="#BBBFC2"/>
<path d="M646.194 314.639H507V319.073C507 321.149 508.698 322.847 510.773 322.847H642.421C644.496 322.847 646.194 321.149 646.194 319.073V314.639Z" stroke="#1F3969" stroke-width="1.93852" stroke-miterlimit="10" stroke-linecap="round" stroke-linejoin="round"/>
<path d="M549.074 262.707H538.461V273.32H549.074V262.707Z" fill="#F09F54"/>
<path d="M549.263 262.801H538.65V273.414H549.263V262.801Z" stroke="#1F3969" stroke-width="1.93852" stroke-miterlimit="10" stroke-linecap="round" stroke-linejoin="round"/>
<path d="M549.263 262.801H538.65V273.414H549.263V262.801Z" stroke="#1F3969" stroke-width="1.93852" stroke-miterlimit="10" stroke-linecap="round" stroke-linejoin="round"/>
<path d="M549.074 273.32H538.461V283.933H549.074V273.32Z" fill="#8D91DB"/>
<path d="M549.263 273.461H538.65V284.074H549.263V273.461Z" stroke="#1F3969" stroke-width="1.93852" stroke-miterlimit="10" stroke-linecap="round" stroke-linejoin="round"/>
<path d="M549.074 283.933H538.461V294.546H549.074V283.933Z" fill="#6567C3"/>
<path d="M549.263 284.074H538.65V294.687H549.263V284.074Z" stroke="#1F3969" stroke-width="1.93852" stroke-miterlimit="10" stroke-linecap="round" stroke-linejoin="round"/>
<path d="M610.96 299.876H560.254C559.216 299.876 558.367 299.027 558.367 297.989V259.264C558.367 258.226 559.216 257.377 560.254 257.377H610.96C611.998 257.377 612.847 258.226 612.847 259.264V297.989C612.847 299.074 611.998 299.876 610.96 299.876Z" fill="white"/>
<path d="M610.96 299.876H560.254C559.216 299.876 558.367 299.027 558.367 297.989V259.264C558.367 258.226 559.216 257.377 560.254 257.377H610.96C611.998 257.377 612.847 258.226 612.847 259.264V297.989C612.847 299.074 611.998 299.876 610.96 299.876Z" stroke="#1F3969" stroke-width="1.93852" stroke-miterlimit="10" stroke-linecap="round" stroke-linejoin="round"/>
<g opacity="0.3">
<g opacity="0.3">
<path opacity="0.3" d="M596.903 288.697V289.404H596.195" stroke="#1F3969" stroke-width="0.969262" stroke-linejoin="round"/>
<path opacity="0.3" d="M595.299 289.404H575.535" stroke="#1F3969" stroke-width="0.969262" stroke-linejoin="round" stroke-dasharray="1.39 1.39"/>
<path opacity="0.3" d="M575.064 289.404H574.356V288.697" stroke="#1F3969" stroke-width="0.969262" stroke-linejoin="round"/>
<path opacity="0.3" d="M574.356 287.706V269.311" stroke="#1F3969" stroke-width="0.969262" stroke-linejoin="round" stroke-dasharray="1.46 1.46"/>
<path opacity="0.3" d="M574.357 268.839V268.132H575.065" stroke="#1F3969" stroke-width="0.969262" stroke-linejoin="round"/>
<path opacity="0.3" d="M575.96 268.131H595.724" stroke="#1F3969" stroke-width="0.969262" stroke-linejoin="round" stroke-dasharray="1.39 1.39"/>
<path opacity="0.3" d="M596.195 268.131H596.903V268.839" stroke="#1F3969" stroke-width="0.969262" stroke-linejoin="round"/>
<path opacity="0.3" d="M596.903 269.782V288.225" stroke="#1F3969" stroke-width="0.969262" stroke-linejoin="round" stroke-dasharray="1.46 1.46"/>
</g>
</g>
<path d="M576.15 266.48H572.801V269.829H576.15V266.48Z" fill="white"/>
<path d="M575.961 266.339H572.659V269.641H575.961V266.339Z" stroke="#1F3969" stroke-width="0.484631" stroke-miterlimit="10" stroke-linejoin="round"/>
<path d="M576.15 287.706H572.801V291.055H576.15V287.706Z" fill="white"/>
<path d="M575.961 287.612H572.659V290.914H575.961V287.612Z" stroke="#1F3969" stroke-width="0.484631" stroke-miterlimit="10" stroke-linejoin="round"/>
<path d="M598.602 266.48H595.253V269.829H598.602V266.48Z" fill="white"/>
<path d="M598.555 266.339H595.253V269.641H598.555V266.339Z" stroke="#1F3969" stroke-width="0.484631" stroke-miterlimit="10" stroke-linejoin="round"/>
<path d="M598.602 287.706H595.253V291.055H598.602V287.706Z" fill="white"/>
<path d="M598.555 287.612H595.253V290.914H598.555V287.612Z" stroke="#1F3969" stroke-width="0.484631" stroke-miterlimit="10" stroke-linejoin="round"/>
<path d="M543.979 278.933L547.328 286.103L550.583 287.801L552.847 285.537L551.196 282.235L543.979 278.933Z" fill="white"/>
<path d="M543.979 278.933L547.328 286.103L550.583 287.801L552.847 285.537L551.196 282.235L543.979 278.933Z" stroke="#1F3969" stroke-width="0.484631" stroke-miterlimit="10" stroke-linejoin="round"/>
<path d="M548.224 283.886C548.719 283.886 549.121 283.484 549.121 282.989C549.121 282.494 548.719 282.093 548.224 282.093C547.729 282.093 547.328 282.494 547.328 282.989C547.328 283.484 547.729 283.886 548.224 283.886Z" fill="#444E59"/>
<path d="M543.979 278.933L547.706 282.659" stroke="#1F3969" stroke-width="0.484631" stroke-miterlimit="10" stroke-linecap="round" stroke-linejoin="round"/>
<path d="M552.861 285.499L550.593 287.767L552.227 289.402L554.495 287.134L552.861 285.499Z" fill="white"/>
<path d="M552.861 285.499L550.593 287.767L552.227 289.402L554.495 287.134L552.861 285.499Z" stroke="#1F3969" stroke-width="0.484631" stroke-miterlimit="10" stroke-linejoin="round"/>
<path d="M656.984 256L651.734 256.616L656.3 295.508L661.55 294.892L656.984 256Z" fill="#FFA364"/>
<path d="M656.991 256.041L651.741 256.658L652.207 260.622L657.456 260.005L656.991 256.041Z" fill="#2AA1FF"/>
<path d="M656.991 256.041L651.741 256.658L652.207 260.622L657.456 260.005L656.991 256.041Z" stroke="#1F3969" stroke-width="1.93852" stroke-miterlimit="10" stroke-linecap="round" stroke-linejoin="round"/>
<path d="M656.984 256L651.734 256.616L656.3 295.508L661.55 294.892L656.984 256Z" stroke="#1F3969" stroke-width="1.93852" stroke-miterlimit="10" stroke-linecap="round" stroke-linejoin="round"/>
<path d="M671.381 263.966L666.126 263.395L661.893 302.322L667.148 302.894L671.381 263.966Z" fill="#FF5252"/>
<path d="M671.381 263.966L666.126 263.395L661.893 302.322L667.148 302.894L671.381 263.966Z" stroke="#1F3969" stroke-width="1.93852" stroke-miterlimit="10" stroke-linecap="round" stroke-linejoin="round"/>
<path d="M671.419 263.976L666.164 263.404L665.733 267.372L670.987 267.943L671.419 263.976Z" fill="#2AA1FF"/>
<path d="M671.419 263.976L666.164 263.404L665.733 267.372L670.987 267.943L671.419 263.976Z" stroke="#1F3969" stroke-width="1.93852" stroke-miterlimit="10" stroke-linecap="round" stroke-linejoin="round"/>
<path d="M674.649 315.616H653.452L650 283.146H678.101L674.649 315.616Z" fill="#6567C3"/>
<path d="M650 283.146L650.054 283.739H671.467L668.069 315.616H674.649L678.101 283.146H650Z" fill="#6567C3"/>
<path d="M674.649 315.616H653.452L650 283.146H678.101L674.649 315.616Z" stroke="#1F3969" stroke-width="1.93852" stroke-miterlimit="10" stroke-linecap="round" stroke-linejoin="round"/>
<path d="M178.999 112.018C177.922 111.93 176.844 112.171 175.907 112.708C174.987 113.339 174.407 114.443 173.815 115.469C171.553 119.443 168.489 122.903 164.819 125.631C162.146 127.59 158.748 130.032 159.205 133.642C159.446 134.835 159.886 135.978 160.508 137.023C162.974 142.001 169.703 145.848 169.041 151.529C171.491 147.427 168.214 145.399 170.664 141.298C171.831 139.344 173.858 137.139 175.619 138.366C176.209 138.777 176.597 139.514 177.211 139.874C178.676 140.734 180.235 139.089 181.533 137.925C186.005 133.91 192.367 134.961 197.933 136.213C200.56 136.803 203.447 137.578 205.001 140.09C207.043 143.392 203.06 146.959 202.054 150.692C201.971 151.01 201.968 151.343 202.042 151.664C202.117 151.983 202.268 152.28 202.483 152.529C202.697 152.778 202.969 152.971 203.275 153.092C203.58 153.213 203.91 153.259 204.237 153.224C205.907 153.059 207.885 152.924 207.985 152.191C210.086 152.266 212.661 152.028 213.561 149.84C213.836 148.974 213.982 148.072 213.992 147.164C214.323 143.489 215.883 140.135 216.916 136.637C217.95 133.139 218.399 129.039 216.655 125.938C216.033 124.906 215.263 123.97 214.371 123.161C204.474 113.583 191.461 112.004 178.999 112.018Z" fill="black"/>
<path d="M171.192 158.704C171.192 158.704 173.345 176.64 165.453 178.075C157.561 179.51 172.628 203.903 172.628 203.903L208.501 208.209L199.891 179.51C199.891 179.51 194.151 177.358 197.738 163.008C201.326 148.659 171.192 158.704 171.192 158.704Z" fill="#F0C39B"/>
<path d="M259.8 392.238L261.952 425.24L278.454 418.066L271.997 390.802L259.8 392.238Z" fill="#F0C39B"/>
<path d="M149.311 466.853L152.18 506.314H167.246L162.942 466.853H149.311Z" fill="#F0C39B"/>
<path d="M150.33 497.691C148.599 500.043 148.947 503.404 147.414 505.888C146.086 508.041 143.581 509.171 141.92 511.079C141.39 511.713 140.917 512.393 140.507 513.11C138.966 515.692 137.713 519.002 139.232 521.598C140.453 523.686 143.02 524.502 145.373 525.058C148.349 525.76 151.441 526.324 154.45 525.786C157.461 525.249 160.402 523.406 161.475 520.543C161.686 519.823 161.937 519.116 162.226 518.424C163.858 515.212 168.975 515.177 170.645 511.985C171.813 509.752 170.739 507.051 169.665 504.771L166.386 497.804C165.298 495.492 160.887 496.822 158.587 496.268C155.588 495.545 152.487 494.749 150.33 497.691Z" fill="#171717"/>
<path d="M138.548 316.187C138.548 316.187 139.266 357.799 143.57 371.431C147.875 385.063 147.158 385.78 146.44 387.932C145.723 390.085 145.005 388.65 145.005 392.238C145.005 395.825 143.57 452.504 145.005 457.526C146.44 462.548 140.7 471.158 145.005 471.876C149.31 472.593 169.399 471.876 170.117 467.571C170.834 463.266 164.377 461.831 167.247 458.961C170.117 456.091 174.421 397.259 174.421 397.259L184.465 356.364L203.12 334.841L221.992 331.934L242.58 334.841L254.777 382.193C254.777 382.193 249.755 395.825 253.342 395.825C256.929 395.825 278.453 400.129 278.453 384.345C278.453 370.493 272.673 332.873 270.511 322.908C270.16 321.291 269.72 319.633 269.351 318.02C269.113 316.976 268.822 315.864 268.487 314.778C267.973 313.106 266.951 311.679 265.52 310.672C258.974 306.06 239.846 294.263 231.818 291.793C222.491 288.923 209.407 285.507 209.407 285.507L138.548 316.187Z" fill="#281818"/>
<path d="M278.453 412.326C278.453 412.326 267.692 408.739 262.669 419.5C257.647 430.263 259.799 433.133 259.799 433.133C259.799 433.133 276.301 438.872 279.171 436.002C280.42 434.754 284.384 434.32 288.466 434.228C294.682 434.089 296.335 425.295 290.465 423.247C290.29 423.186 290.112 423.133 289.933 423.088C284.193 421.653 278.453 412.326 278.453 412.326Z" fill="#171717"/>
<path d="M187.336 170.542C199.223 170.542 208.86 160.905 208.86 149.018C208.86 137.13 199.223 127.494 187.336 127.494C175.449 127.494 165.812 137.13 165.812 149.018C165.812 160.905 175.449 170.542 187.336 170.542Z" fill="#F0C39B"/>
<path d="M158.183 187.196C158.183 187.196 190.862 194.357 198.865 182.9C206.868 171.443 210.203 215.122 210.203 215.122L214.204 260.951L211.237 285.944C211.237 285.944 176.857 313.224 166.853 315.372C156.85 317.52 141.511 318.953 141.511 318.953C141.511 318.953 146.179 239.469 146.179 238.037C146.179 236.604 158.183 187.196 158.183 187.196Z" fill="#2874F0"/>
<path d="M170.046 173.587C170.046 173.587 162.224 169.106 160.072 173.411C157.919 177.716 137.83 188.478 135.678 188.478C133.526 188.478 139.983 248.027 137.113 255.202C134.243 262.377 120.612 314.751 128.503 319.056C136.396 323.361 130.656 314.751 138.548 325.514C146.44 336.275 185.183 336.275 187.335 331.971C189.488 327.665 170.116 295.38 173.704 265.247C177.291 235.113 183.03 193.5 178.008 187.761C172.986 182.021 170.046 173.587 170.046 173.587Z" fill="#171717"/>
<path d="M195.945 178.434L196.945 174.995C196.945 174.995 226.796 184.891 228.231 191.348C229.666 197.805 228.949 243.006 223.926 246.593C218.904 250.18 211.729 255.92 216.752 264.529C221.774 273.138 227.514 282.466 231.819 283.183C236.123 283.901 244.015 288.923 241.863 293.945C239.711 298.967 213.882 289.64 213.882 289.64C213.882 289.64 196.663 276.726 197.381 256.637C198.098 236.548 195.945 178.434 195.945 178.434Z" fill="#171717"/>
<path d="M221.058 263.094L203.838 295.38C203.838 295.38 178.727 321.208 193.076 324.078C207.425 326.948 215.318 300.402 215.318 300.402L233.972 273.856L221.058 263.094Z" fill="#F0C39B"/>
<path d="M180.047 117.649C179.18 117.585 178.31 117.754 177.53 118.137C176.824 118.653 176.242 119.32 175.828 120.089C173.914 122.968 171.419 125.414 168.504 127.271C166.328 128.655 163.561 130.382 163.933 132.933C164.136 133.789 164.496 134.599 164.994 135.323C167.009 138.877 167.811 142.991 167.279 147.041L173.262 138.344C174.212 136.963 175.862 135.405 177.296 136.272C177.776 136.562 178.091 137.083 178.591 137.338C179.784 137.945 181.053 136.784 182.11 135.96C185.75 133.122 190.928 133.866 195.46 134.75C197.599 135.167 199.949 135.716 201.213 137.491C203.314 140.441 201.12 144.703 202.347 148.111C202.69 147.871 202.981 147.564 203.204 147.209C203.426 146.853 203.576 146.457 203.642 146.043C205.353 146.097 207.449 145.928 208.182 144.382C208.404 143.776 208.524 143.136 208.533 142.49C208.802 139.892 210.072 137.523 210.913 135.05C211.754 132.577 212.121 129.68 210.701 127.488C210.182 126.745 209.554 126.084 208.841 125.525C200.784 118.756 190.192 117.64 180.047 117.649Z" fill="black"/>
<path d="M221.057 188.478L227.742 190.253C227.742 190.253 243.299 230.091 239.712 257.354C236.124 284.618 233.972 278.878 233.972 278.878C233.972 278.878 228.232 265.964 215.317 268.834L221.057 188.478Z" fill="#171717"/>
<path d="M126.352 277.444L156.485 324.078C156.485 324.078 175.139 347.755 180.879 336.992C186.619 326.231 160.79 308.294 160.79 308.294L141.418 272.421L126.352 277.444Z" fill="#F0C39B"/>
<path d="M141.418 189.913L135.679 188.478C135.679 188.478 124.2 192.065 121.33 207.132C118.46 222.199 120.613 282.466 124.2 283.183C127.787 283.9 141.918 272.689 144.179 275.066C146.441 277.443 139.266 265.247 141.418 258.789C143.571 252.332 141.418 189.913 141.418 189.913Z" fill="#171717"/>
<defs>
<radialGradient id="paint0_radial_2003_122" cx="0" cy="0" r="1" gradientUnits="userSpaceOnUse" gradientTransform="translate(444 261) rotate(90.1796) scale(258.001)">
<stop stop-color="#132849"/>
<stop offset="1" stop-color="#1D1D1D"/>
</radialGradient>
</defs>
</svg>
