<svg width="396" height="404" viewBox="0 0 396 404" fill="none" xmlns="http://www.w3.org/2000/svg">
<path opacity="0.64" d="M167.986 404C260.762 404 335.971 388.868 335.971 370.203C335.971 351.537 260.762 336.406 167.986 336.406C75.2097 336.406 0 351.537 0 370.203C0 388.868 75.2097 404 167.986 404Z" fill="#151515"/>
<path d="M87.4582 364.772C89.8161 357.127 97.0329 353.054 108.751 349.624C116.182 347.481 125.614 346.48 140.405 343.479C147.621 342.05 152.695 339.192 152.695 339.192V347.409C152.695 347.409 103.749 357.055 96.104 369.703C92.3884 375.919 93.5317 391.138 111.038 392.71C105.679 393.496 96.89 392.139 92.1741 387.351C86.3149 381.421 84.743 373.49 87.4582 364.772Z" fill="#282323" stroke="black" stroke-width="4" stroke-miterlimit="10" stroke-linecap="round" stroke-linejoin="round"/>
<path d="M152.695 347.409C152.695 347.409 123.399 352.84 107.751 359.556C94.032 365.487 94.4607 371.632 94.1034 377.92C93.889 381.564 96.4614 390.567 106.893 392.139C119.326 393.997 133.974 391.996 152.695 380.063C152.695 350.839 152.695 347.409 152.695 347.409Z" fill="#442C2A"/>
<path opacity="0.37" d="M94.1034 377.92C94.3892 372.846 94.1749 367.845 101.32 362.986C101.034 364.772 100.963 366.487 100.891 368.273C100.677 371.918 109.466 367.202 119.898 368.702C130.759 370.346 137.189 382.778 152.695 374.418C152.695 376.205 152.695 378.063 152.695 379.992C133.974 391.924 119.326 393.854 106.893 392.067C96.4614 390.567 93.889 381.492 94.1034 377.92Z" fill="#442C2A"/>
<path d="M152.695 347.409C152.695 347.409 123.399 352.84 107.751 359.556C94.032 365.487 94.4607 371.632 94.1034 377.92C93.889 381.564 96.4614 390.567 106.893 392.139C119.326 393.997 133.974 391.996 152.695 380.063C152.695 350.839 152.695 347.409 152.695 347.409Z" stroke="black" stroke-width="4" stroke-miterlimit="10" stroke-linecap="round" stroke-linejoin="round"/>
<path d="M125.543 364.201C123.185 365.487 123.756 377.991 129.472 379.706" stroke="black" stroke-width="4" stroke-miterlimit="10" stroke-linecap="round" stroke-linejoin="round"/>
<path d="M134.474 363.272C132.045 366.701 133.76 374.776 138.118 376.776" stroke="black" stroke-width="4" stroke-miterlimit="10" stroke-linecap="round" stroke-linejoin="round"/>
<path d="M142.692 360.414C140.262 363.843 141.977 371.918 146.336 373.918" stroke="black" stroke-width="4" stroke-miterlimit="10" stroke-linecap="round" stroke-linejoin="round"/>
<path d="M227.005 323.401C211.572 334.119 189.636 340.264 166.699 340.264C143.834 340.264 121.827 334.119 106.393 323.401C99.3192 318.471 87.458 308.182 87.458 294.463C87.458 280.744 99.3192 270.454 106.393 265.524C121.827 254.806 143.763 248.661 166.699 248.661C189.564 248.661 211.572 254.806 227.005 265.524C234.079 270.454 245.94 280.744 245.94 294.463C245.94 308.182 234.079 318.471 227.005 323.401Z" fill="#151E28"/>
<path d="M297.672 305.895C297.387 307.324 297.101 308.682 296.672 310.111C285.525 350.768 231.793 381.635 167.128 381.635C102.32 381.635 48.4449 350.625 37.5127 309.825C37.2268 308.682 36.941 307.539 36.7267 306.395C36.4409 304.252 36.5123 302.108 36.941 299.965C39.5848 287.961 54.1612 281.03 69.5235 284.459C79.5984 286.674 87.4582 292.891 90.9594 300.25C91.3166 301.822 91.8883 303.394 92.5313 304.895C96.2469 313.469 103.678 319.9 108.68 323.473C123.613 334.191 144.978 340.335 167.128 340.335C189.35 340.335 210.643 334.191 225.577 323.473C230.65 319.828 238.152 313.326 241.796 304.752C242.368 303.394 242.868 301.894 243.225 300.465C246.655 293.034 254.586 286.817 264.733 284.531C280.095 281.101 294.671 288.103 297.315 300.036C297.815 301.894 297.887 303.894 297.672 305.895Z" fill="#2A3749"/>
<path opacity="0.67" d="M297.315 299.893C297.244 299.536 297.172 299.25 297.03 298.893C296.815 300.036 296.529 301.251 296.172 302.394C285.168 343.051 231.364 373.918 166.771 373.918C101.963 373.918 48.0879 342.908 37.1556 302.108C37.0127 301.68 36.9412 301.251 36.7983 300.751C36.5125 302.608 36.4411 304.466 36.7269 306.253C36.9412 307.396 37.227 308.539 37.5129 309.682C48.4451 350.482 102.321 381.492 167.128 381.492C231.793 381.492 285.526 350.625 296.672 309.968C297.03 308.611 297.387 307.181 297.673 305.752C297.887 303.895 297.816 301.894 297.315 299.893Z" fill="#151E28"/>
<path d="M297.672 305.895C297.387 307.324 297.101 308.682 296.672 310.111C285.525 350.768 231.793 381.635 167.128 381.635C102.32 381.635 48.4449 350.625 37.5127 309.825C37.2268 308.682 36.941 307.539 36.7267 306.395C36.4409 304.252 36.5123 302.108 36.941 299.965C39.5848 287.961 54.1612 281.03 69.5235 284.459C79.5984 286.674 87.4582 292.891 90.9594 300.25C91.3166 301.822 91.8883 303.394 92.5313 304.895C96.2469 313.469 103.678 319.9 108.68 323.473C123.613 334.191 144.978 340.335 167.128 340.335C189.35 340.335 210.643 334.191 225.577 323.473C230.65 319.828 238.152 313.326 241.796 304.752C242.368 303.394 242.868 301.894 243.225 300.465C246.655 293.034 254.586 286.817 264.733 284.531C280.095 281.101 294.671 288.103 297.315 300.036C297.815 301.894 297.887 303.894 297.672 305.895Z" stroke="black" stroke-width="4" stroke-miterlimit="10" stroke-linecap="round" stroke-linejoin="round"/>
<path d="M167.986 318.471C203.541 318.471 232.365 308.682 232.365 296.606C232.365 284.531 203.541 274.742 167.986 274.742C132.43 274.742 103.607 284.531 103.607 296.606C103.607 308.682 132.43 318.471 167.986 318.471Z" fill="#9B2121"/>
<path d="M167.986 318.471C203.541 318.471 232.365 308.682 232.365 296.606C232.365 284.531 203.541 274.742 167.986 274.742C132.43 274.742 103.607 284.531 103.607 296.606C103.607 308.682 132.43 318.471 167.986 318.471Z" stroke="black" stroke-width="4" stroke-miterlimit="10" stroke-linecap="round" stroke-linejoin="round"/>
<path d="M241.296 248.876H92.9602C81.5992 248.876 72.8105 238.944 74.2395 227.654L80.8132 175.137C82.671 160.131 95.3896 148.913 110.538 148.913H223.862C238.938 148.913 251.657 160.131 253.586 175.137L260.16 227.654C261.446 238.944 252.657 248.876 241.296 248.876Z" fill="#F1534D"/>
<path d="M241.296 248.876H92.9602C81.5992 248.876 72.8105 238.944 74.2395 227.654L80.8132 175.137C82.671 160.131 95.3896 148.913 110.538 148.913H223.862C238.938 148.913 251.657 160.131 253.586 175.137L260.16 227.654C261.446 238.944 252.657 248.876 241.296 248.876Z" stroke="black" stroke-width="4" stroke-miterlimit="10" stroke-linecap="round" stroke-linejoin="round"/>
<path d="M109.037 193.286L107.608 211.22" stroke="black" stroke-width="4" stroke-miterlimit="10" stroke-linecap="round" stroke-linejoin="round"/>
<path d="M226.291 193.286L227.72 211.22" stroke="black" stroke-width="4" stroke-miterlimit="10" stroke-linecap="round" stroke-linejoin="round"/>
<path d="M241.296 248.876H92.9602C81.5992 248.876 72.8105 238.944 74.2395 227.654L80.8132 175.137C82.671 160.131 95.3896 148.913 110.538 148.913H223.862C238.938 148.913 251.657 160.131 253.586 175.137L260.16 227.654C261.446 238.944 252.657 248.876 241.296 248.876Z" fill="#F1534D"/>
<g opacity="0.24">
<path opacity="0.24" d="M80.7416 180.71C82.5994 165.705 95.318 154.487 110.466 154.487H223.79C238.867 154.487 251.585 165.705 253.515 180.71L260.017 232.799C260.231 231.156 260.303 229.441 260.088 227.654L253.515 175.137C251.657 160.131 238.938 148.913 223.79 148.913H110.466C95.3894 148.913 82.6708 160.131 80.7416 175.137L74.1679 227.654C73.9536 229.369 73.9536 231.084 74.2394 232.799L80.7416 180.71Z" fill="#9B2121"/>
<path opacity="0.24" d="M117.04 154.487C117.04 154.487 125.829 156.059 126.543 160.917C127.115 164.847 127.043 167.42 128.544 168.992C130.044 170.564 133.546 173.779 140.619 173.779C136.69 169.849 136.618 156.059 135.546 156.059C134.546 156.059 131.974 149.199 131.974 149.199L128.544 147.627C128.615 147.627 115.968 149.199 117.04 154.487Z" fill="#9B2121"/>
<path opacity="0.24" d="M210.929 154.487C210.929 154.487 202.14 156.059 201.426 160.917C200.854 164.847 200.925 167.42 199.425 168.992C197.924 170.492 194.423 173.779 187.349 173.779C191.279 169.849 191.351 156.059 192.423 156.059C193.423 156.059 195.995 149.199 195.995 149.199L199.425 147.627C199.353 147.627 212.001 149.199 210.929 154.487Z" fill="#9B2121"/>
</g>
<path d="M241.296 248.876H92.9602C81.5992 248.876 72.8105 238.944 74.2395 227.654L80.8132 175.137C82.671 160.131 95.3896 148.913 110.538 148.913H223.862C238.938 148.913 251.657 160.131 253.586 175.137L260.16 227.654C261.446 238.944 252.657 248.876 241.296 248.876Z" stroke="black" stroke-width="4" stroke-miterlimit="10" stroke-linecap="round" stroke-linejoin="round"/>
<path d="M109.037 193.286L107.608 211.22" stroke="black" stroke-width="4" stroke-miterlimit="10" stroke-linecap="round" stroke-linejoin="round"/>
<path d="M226.292 193.286L227.721 211.22" stroke="black" stroke-width="4" stroke-miterlimit="10" stroke-linecap="round" stroke-linejoin="round"/>
<path d="M148.051 119.046L124.543 117.831L113.539 119.046C113.539 119.046 106.179 124.548 106.179 126.048C106.179 127.549 106.894 139.767 106.894 139.767C106.894 139.767 124.257 142.125 126.115 143.911C127.972 145.698 138.976 155.987 138.976 155.987L149.623 151.843L155.196 136.981L148.051 119.046Z" fill="#9B2121"/>
<path d="M143.906 109.973H116.754C105.822 109.973 96.8901 118.833 96.8901 129.837C96.8901 140.769 105.75 149.701 116.754 149.701H120.327C126.114 149.701 130.759 154.345 130.759 160.133V161.204C130.759 168.135 136.404 173.78 143.334 173.78V160.919C143.477 160.919 143.62 161.062 143.62 161.204V160.133C143.62 147.271 133.188 136.839 120.327 136.839H116.754C112.896 136.839 109.752 133.695 109.752 129.837C109.752 125.978 112.896 122.834 116.754 122.834H143.906V109.973Z" fill="#F1534D"/>
<path d="M142.264 152.057C138.977 143.197 130.403 136.766 120.399 136.766H116.827C112.968 136.766 109.824 133.622 109.824 129.764C109.824 125.905 112.968 122.761 116.827 122.761H143.979V109.9H116.827C105.895 109.9 96.9629 118.76 96.9629 129.764C96.9629 140.696 105.823 149.628 116.827 149.628H120.399C126.187 149.628 130.832 154.272 130.832 160.06V161.132C130.832 168.063 136.476 173.707 143.407 173.707" stroke="black" stroke-width="4" stroke-miterlimit="10" stroke-linecap="round" stroke-linejoin="round"/>
<path d="M179.133 119.046L202.641 117.831L213.644 119.046C213.644 119.046 221.004 124.548 221.004 126.048C221.004 127.549 220.289 139.767 220.289 139.767C220.289 139.767 202.926 142.125 201.069 143.911C199.211 145.769 188.207 155.987 188.207 155.987L177.561 151.843L171.987 136.981L179.133 119.046Z" fill="#9B2121"/>
<path d="M183.276 109.971H210.428C221.361 109.971 230.292 118.832 230.292 129.835C230.292 140.768 221.432 149.699 210.428 149.699H206.856C201.068 149.699 196.424 154.344 196.424 160.131V161.203C196.424 168.134 190.779 173.779 183.848 173.779V160.917C183.705 160.917 183.562 161.06 183.562 161.203V160.131C183.562 147.27 193.994 136.838 206.856 136.838H210.428C214.287 136.838 217.431 133.694 217.431 129.835C217.431 125.977 214.287 122.833 210.428 122.833H183.276V109.971Z" fill="#F1534D"/>
<path d="M184.991 152.057C188.278 143.197 196.852 136.766 206.856 136.766H210.428C214.287 136.766 217.431 133.622 217.431 129.764C217.431 125.905 214.287 122.761 210.428 122.761H183.276V109.9H210.428C221.361 109.9 230.292 118.76 230.292 129.764C230.292 140.696 221.432 149.628 210.428 149.628H206.856C201.068 149.628 196.424 154.272 196.424 160.06V161.132C196.424 168.063 190.779 173.707 183.848 173.707" stroke="black" stroke-width="4" stroke-miterlimit="10" stroke-linecap="round" stroke-linejoin="round"/>
<path d="M164.913 163.632C180.303 163.632 192.78 151.156 192.78 135.766C192.78 120.375 180.303 107.899 164.913 107.899C149.523 107.899 137.046 120.375 137.046 135.766C137.046 151.156 149.523 163.632 164.913 163.632Z" fill="#F46262"/>
<path d="M138.261 127.549C145.978 132.479 155.124 135.409 164.913 135.409C174.702 135.409 183.848 132.551 191.565 127.549C188.064 116.116 177.489 107.828 164.913 107.828C152.409 107.899 141.762 116.188 138.261 127.549Z" fill="#F1534D"/>
<path d="M164.913 163.632C180.303 163.632 192.78 151.156 192.78 135.766C192.78 120.375 180.303 107.899 164.913 107.899C149.523 107.899 137.046 120.375 137.046 135.766C137.046 151.156 149.523 163.632 164.913 163.632Z" stroke="black" stroke-width="4" stroke-miterlimit="10" stroke-linecap="round" stroke-linejoin="round"/>
<path d="M164.913 151.914C155.839 151.914 148.479 144.555 148.479 135.48V123.19C148.479 120.904 150.337 119.046 152.623 119.046H177.275C179.561 119.046 181.419 120.904 181.419 123.19V135.48C181.347 144.555 173.988 151.914 164.913 151.914Z" fill="#FFC897"/>
<path d="M177.275 119.046H152.623C150.337 119.046 148.479 121.047 148.479 123.476V133.551C153.624 135.48 159.125 136.552 164.913 136.552C170.701 136.552 176.203 135.48 181.347 133.551V123.476C181.347 121.047 179.49 119.046 177.275 119.046Z" fill="#E5A973"/>
<path d="M164.913 151.914C155.839 151.914 148.479 144.555 148.479 135.48V123.19C148.479 120.904 150.337 119.046 152.623 119.046H177.275C179.561 119.046 181.419 120.904 181.419 123.19V135.48C181.347 144.555 173.988 151.914 164.913 151.914Z" stroke="black" stroke-width="4" stroke-miterlimit="10" stroke-linecap="round" stroke-linejoin="round"/>
<path d="M182.705 337.049H167.414V385.851H182.705V337.049Z" fill="#607691"/>
<path d="M182.705 337.049H167.414V385.851H182.705V337.049Z" stroke="black" stroke-width="4" stroke-miterlimit="10" stroke-linecap="round" stroke-linejoin="round"/>
<path d="M92.4599 304.752C91.8168 303.251 91.3167 301.751 90.8879 300.108C91.6739 301.68 92.1741 303.18 92.4599 304.752Z" stroke="black" stroke-width="4" stroke-miterlimit="10" stroke-linecap="round" stroke-linejoin="round"/>
<path d="M241.868 304.609C242.154 303.108 242.654 301.679 243.297 300.322C242.94 301.822 242.44 303.251 241.868 304.609Z" stroke="black" stroke-width="4" stroke-miterlimit="10" stroke-linecap="round" stroke-linejoin="round"/>
<path d="M241.654 301.181H92.6745C87.387 301.181 82.8855 297.251 82.1709 291.964L72.8821 219.225C72.0961 212.937 77.0263 207.292 83.3856 207.292H250.943C257.302 207.292 262.232 212.866 261.446 219.225L252.157 291.964C251.443 297.18 246.941 301.181 241.654 301.181Z" fill="#B5B5B5"/>
<path opacity="0.21" d="M252.086 287.389C251.443 292.676 246.941 296.606 241.582 296.606H92.6744C87.3869 296.606 82.8854 292.676 82.1708 287.389L73.0249 215.722C72.8105 216.865 72.7391 218.008 72.882 219.223L82.1708 291.962C82.8139 297.249 87.3154 301.179 92.6744 301.179H241.654C246.941 301.179 251.443 297.249 252.157 291.962L261.446 219.223C261.589 218.008 261.517 216.865 261.303 215.722L252.086 287.389Z" fill="#7E7E7E"/>
<path opacity="0.21" d="M72.9538 219.866C73.8112 215.007 78.0984 211.149 83.3144 211.149H250.871C256.159 211.149 260.375 214.936 261.232 219.866L261.303 219.151C262.089 212.864 257.159 207.219 250.8 207.219H83.3859C77.0266 207.219 72.0963 212.792 72.8823 219.151L72.9538 219.866Z" fill="#7E7E7E"/>
<path d="M241.654 301.181H92.6745C87.387 301.181 82.8855 297.251 82.1709 291.964L72.8821 219.225C72.0961 212.937 77.0263 207.292 83.3856 207.292H250.943C257.302 207.292 262.232 212.866 261.446 219.225L252.157 291.964C251.443 297.18 246.941 301.181 241.654 301.181Z" stroke="black" stroke-width="4" stroke-miterlimit="10" stroke-linecap="round" stroke-linejoin="round"/>
<path opacity="0.66" d="M174.202 249.805C170.987 249.805 168.414 247.232 168.414 244.017C168.414 243.803 168.414 243.588 168.486 243.374C167.914 243.303 167.342 243.231 166.771 243.231C161.555 243.231 157.268 247.518 157.268 252.734C157.268 257.95 161.555 262.238 166.771 262.238C171.987 262.238 176.274 257.95 176.274 252.734C176.274 251.663 176.06 250.591 175.774 249.59C175.274 249.662 174.774 249.805 174.202 249.805Z" fill="#B5B5B5"/>
<path d="M247.941 364.772C245.583 357.127 238.367 353.054 226.648 349.624C219.217 347.481 209.785 346.48 194.995 343.479C187.778 342.05 182.705 339.192 182.705 339.192V347.409C182.705 347.409 231.65 357.055 239.295 369.703C243.011 375.919 241.868 391.138 224.362 392.71C229.721 393.496 238.51 392.139 243.225 387.351C249.085 381.421 250.656 373.49 247.941 364.772Z" fill="#282323" stroke="black" stroke-width="4" stroke-miterlimit="10" stroke-linecap="round" stroke-linejoin="round"/>
<path d="M182.705 347.409C182.705 347.409 212.001 352.84 227.649 359.556C241.368 365.487 240.939 371.632 241.296 377.92C241.511 381.564 238.938 390.567 228.506 392.139C216.073 393.997 201.425 391.996 182.705 380.063C182.705 350.839 182.705 347.409 182.705 347.409Z" fill="#442C2A"/>
<path opacity="0.37" d="M241.296 377.92C241.01 372.846 241.225 367.845 234.079 362.986C234.365 364.772 234.437 366.487 234.508 368.273C234.723 371.918 232.15 380.921 221.718 382.493C210.857 384.136 198.21 382.778 182.705 374.418C182.705 376.205 182.705 378.063 182.705 379.992C201.425 391.924 216.073 393.854 228.506 392.067C239.01 390.567 241.511 381.492 241.296 377.92Z" fill="#442C2A"/>
<path d="M182.705 347.409C182.705 347.409 212.001 352.84 227.649 359.556C241.368 365.487 240.939 371.632 241.296 377.92C241.511 381.564 238.938 390.567 228.506 392.139C216.073 393.997 201.425 391.996 182.705 380.063C182.705 350.839 182.705 347.409 182.705 347.409Z" stroke="black" stroke-width="4" stroke-miterlimit="10" stroke-linecap="round" stroke-linejoin="round"/>
<path d="M209.857 364.201C212.215 365.487 211.644 377.991 205.927 379.706" stroke="black" stroke-width="4" stroke-miterlimit="10" stroke-linecap="round" stroke-linejoin="round"/>
<path d="M200.926 363.272C203.355 366.701 201.64 374.776 197.281 376.776" stroke="black" stroke-width="4" stroke-miterlimit="10" stroke-linecap="round" stroke-linejoin="round"/>
<path d="M192.709 360.414C195.138 363.843 193.423 371.918 189.064 373.918" stroke="black" stroke-width="4" stroke-miterlimit="10" stroke-linecap="round" stroke-linejoin="round"/>
<path d="M139.833 166.491V204.503" stroke="black" stroke-width="6" stroke-miterlimit="10" stroke-linecap="round" stroke-linejoin="round"/>
<path d="M188.064 166.491V193.285" stroke="black" stroke-width="6" stroke-miterlimit="10" stroke-linecap="round" stroke-linejoin="round"/>
<path d="M188.064 201.36C191.339 201.36 193.994 198.705 193.994 195.429C193.994 192.154 191.339 189.499 188.064 189.499C184.789 189.499 182.133 192.154 182.133 195.429C182.133 198.705 184.789 201.36 188.064 201.36Z" fill="black"/>
<path d="M188.064 197.144C189.406 197.144 190.493 196.056 190.493 194.715C190.493 193.373 189.406 192.285 188.064 192.285C186.722 192.285 185.635 193.373 185.635 194.715C185.635 196.056 186.722 197.144 188.064 197.144Z" fill="#7E7E7E"/>
<path d="M164.913 131.121C140.048 131.121 119.826 110.972 119.826 86.0347V33.7312H210V86.0347C210 110.9 189.85 131.121 164.913 131.121Z" fill="#FFC897"/>
<path d="M164.913 124.905C140.048 124.905 119.826 104.755 119.826 79.8184V86.0348C119.826 110.9 139.976 131.122 164.913 131.122C189.779 131.122 210 110.972 210 86.0348V79.8184C210 104.684 189.85 124.905 164.913 124.905Z" fill="#E5A973"/>
<path d="M164.913 131.121C140.048 131.121 119.826 110.972 119.826 86.0347V33.7312H210V86.0347C210 110.9 189.85 131.121 164.913 131.121Z" stroke="black" stroke-width="4" stroke-miterlimit="10" stroke-linecap="round" stroke-linejoin="round"/>
<path d="M210.357 38.9473C210.214 36.5179 210.072 34.017 210 31.5876C179.99 33.0167 149.837 32.8023 119.898 30.1586C119.684 32.9452 119.541 35.7319 119.326 38.5186C120.684 39.7333 122.113 41.0194 123.471 42.2341C124.614 42.8057 126.114 43.5917 127.472 44.3062C133.474 47.4502 141.834 51.4515 149.837 53.0235C152.766 53.5951 155.839 53.8809 158.983 53.8095C172.487 53.6666 183.848 48.3076 188.636 46.0926C189.35 45.7353 189.922 45.4495 190.279 45.378C190.565 45.2351 190.851 45.1637 191.279 45.1637C192.137 45.1637 193.137 45.378 194.352 45.5924C195.924 45.9497 197.782 46.3069 199.854 46.164C202.212 46.0211 204.355 45.3066 206.427 43.949C207.642 42.2341 209 40.5907 210.357 38.9473Z" fill="#E5A973"/>
<path d="M188.636 11.7953C188.636 11.7953 152.552 -11.9985 122.685 14.582C117.111 19.5122 114.896 26.586 114.896 33.0882V67.5285H119.898V42.52C119.898 40.6623 121.184 39.2332 122.756 39.2332C125.328 39.2332 139.262 46.6643 151.051 48.7364C168.843 51.8089 185.063 43.5918 188.564 42.3771C194.566 40.2335 199.425 47.6646 206.999 39.3046H207.285C208.857 39.3046 210.143 40.8051 210.143 42.5915V67.6H215.145V33.3026C215.002 24.8712 205.284 3.72112 188.636 11.7953Z" fill="#231A17"/>
<g opacity="0.34">
<path opacity="0.34" d="M119.826 62.8126H114.825V67.5285H119.826V62.8126Z" fill="#231A17"/>
<path opacity="0.34" d="M215.001 62.8126H210V67.5285H215.001V62.8126Z" fill="#231A17"/>
</g>
<path d="M188.636 11.7953C188.636 11.7953 152.552 -11.9985 122.685 14.582C117.111 19.5122 114.896 26.586 114.896 33.0882V67.5285H119.898V42.52C119.898 40.6623 121.184 39.2332 122.756 39.2332C125.328 39.2332 139.262 46.6643 151.051 48.7364C168.843 51.8089 185.063 43.5918 188.564 42.3771C194.566 40.2335 199.425 47.6646 206.999 39.3046H207.285C208.857 39.3046 210.143 40.8051 210.143 42.5915V67.6H215.145V33.3026C215.002 24.8712 205.284 3.72112 188.636 11.7953Z" stroke="black" stroke-width="4" stroke-miterlimit="10" stroke-linecap="round" stroke-linejoin="round"/>
<path d="M210 61.9551V85.3916C215.001 85.3916 219.003 80.1755 219.003 73.6733C219.003 67.1711 215.001 61.9551 210 61.9551Z" fill="#FFC897"/>
<path d="M210 63.2412V84.034C212.929 82.1047 214.93 78.1749 214.93 73.6019C214.93 69.1003 212.929 65.1704 210 63.2412Z" fill="#E5A973"/>
<path d="M210 61.9551V85.3916C215.001 85.3916 219.003 80.1755 219.003 73.6733C219.003 67.1711 215.001 61.9551 210 61.9551Z" stroke="black" stroke-width="4" stroke-miterlimit="10" stroke-linecap="round" stroke-linejoin="round"/>
<path d="M119.898 61.9551V85.3916C114.896 85.3916 110.895 80.1755 110.895 73.6733C110.823 67.1711 114.896 61.9551 119.898 61.9551Z" fill="#FFC897"/>
<path d="M119.898 63.6699C117.326 65.7421 115.539 69.4576 115.539 73.6733C115.539 77.889 117.254 81.6046 119.898 83.6767V63.6699Z" fill="#E5A973"/>
<path d="M119.898 61.9551V85.3916C114.896 85.3916 110.895 80.1755 110.895 73.6733C110.823 67.1711 114.896 61.9551 119.898 61.9551Z" stroke="black" stroke-width="4" stroke-miterlimit="10" stroke-linecap="round" stroke-linejoin="round"/>
<path d="M163.055 81.0331L160.054 90.8221C160.054 91.8939 163.556 91.0365 167.128 91.8939" stroke="black" stroke-width="4" stroke-miterlimit="10" stroke-linecap="round" stroke-linejoin="round"/>
<path d="M179.918 99.325C180.99 106.756 171.415 113.33 163.913 111.972" stroke="black" stroke-width="3" stroke-miterlimit="10" stroke-linecap="round" stroke-linejoin="round"/>
<path d="M148.693 72.7445C150.351 72.7445 151.694 71.3049 151.694 69.5291C151.694 67.7533 150.351 66.3137 148.693 66.3137C147.036 66.3137 145.692 67.7533 145.692 69.5291C145.692 71.3049 147.036 72.7445 148.693 72.7445Z" stroke="black" stroke-width="2" stroke-miterlimit="10" stroke-linecap="round" stroke-linejoin="round"/>
<path d="M148.693 72.7445C150.351 72.7445 151.694 71.3049 151.694 69.5291C151.694 67.7533 150.351 66.3137 148.693 66.3137C147.036 66.3137 145.692 67.7533 145.692 69.5291C145.692 71.3049 147.036 72.7445 148.693 72.7445Z" fill="black"/>
<path d="M138.333 62.741C139.833 60.9547 143.334 59.74 147.479 59.74C150.766 59.74 153.624 60.526 155.41 61.7407" stroke="black" stroke-width="3" stroke-miterlimit="10" stroke-linecap="round" stroke-linejoin="round"/>
<path d="M181.562 72.7445C183.219 72.7445 184.563 71.3049 184.563 69.5291C184.563 67.7533 183.219 66.3137 181.562 66.3137C179.904 66.3137 178.561 67.7533 178.561 69.5291C178.561 71.3049 179.904 72.7445 181.562 72.7445Z" stroke="black" stroke-width="2" stroke-miterlimit="10" stroke-linecap="round" stroke-linejoin="round"/>
<path d="M181.562 72.7445C183.219 72.7445 184.563 71.3049 184.563 69.5291C184.563 67.7533 183.219 66.3137 181.562 66.3137C179.904 66.3137 178.561 67.7533 178.561 69.5291C178.561 71.3049 179.904 72.7445 181.562 72.7445Z" fill="black"/>
<path d="M191.922 62.741C190.422 60.9547 186.921 59.74 182.776 59.74C179.489 59.74 176.631 60.526 174.845 61.7407" stroke="black" stroke-width="3" stroke-miterlimit="10" stroke-linecap="round" stroke-linejoin="round"/>
<ellipse cx="354.892" cy="380.198" rx="40.2564" ry="9.5344" fill="#191919"/>
<path d="M339.679 373.049L340.465 378.67C340.583 379.515 341.369 380.144 342.313 380.144H367.51C368.454 380.144 369.24 379.515 369.358 378.67L370.144 373.049H339.679Z" fill="#D6D6D4"/>
<path d="M366.94 380.144L368.768 379.672L370.105 373.049H339.679L339.974 375.211H365.093C365.112 375.211 365.112 375.211 365.132 375.211C368.729 375.211 366.94 380.144 366.94 380.144Z" fill="#BABABA"/>
<path d="M373.151 371.142L380.031 316.207H329.753L336.632 371.142C336.77 372.223 337.713 373.049 338.834 373.049H370.97C372.09 373.049 373.014 372.243 373.151 371.142Z" fill="#9A3535"/>
<path opacity="0.34" d="M353.496 361.177C353.005 361.177 352.632 360.922 352.494 360.823C352.062 360.469 351.806 359.88 351.786 359.172C351.747 358.307 352.062 357.462 352.612 356.932C352.769 356.794 353.221 356.342 353.811 356.342C353.87 356.342 353.929 356.342 353.988 356.362C354.381 356.421 354.735 356.676 355.01 357.108C355.442 357.757 355.58 358.642 355.403 359.388C355.187 360.253 354.46 361.177 353.536 361.197L353.496 361.177ZM353.693 358.465C353.516 358.877 353.555 359.133 353.614 359.192C353.614 359.192 353.634 359.192 353.634 359.212C353.654 359.192 353.693 359.133 353.732 359.035C353.791 358.838 353.752 358.622 353.693 358.465Z" fill="#60A06C"/>
<path opacity="0.34" d="M355.777 363.614C355.521 363.614 355.266 363.536 355.069 363.398C354.637 363.103 354.657 362.71 354.774 361.275C354.853 360.371 354.971 358.976 355.069 356.814C355.069 356.696 355.089 356.597 355.089 356.479C355.069 356.479 355.069 356.479 355.05 356.479C355.01 356.479 354.951 356.479 354.912 356.479C354.755 356.499 354.598 356.499 354.44 356.499C354.263 356.499 354.106 356.519 353.949 356.538C353.89 356.538 353.831 356.558 353.772 356.558C353.654 356.578 353.556 356.578 353.477 356.578C353.3 356.578 353.163 356.519 353.045 356.401C352.632 355.988 353.084 355.104 353.418 354.769C353.693 354.514 354.067 354.376 354.519 354.376C354.774 354.376 355.069 354.416 355.423 354.494C355.639 353.865 355.954 353.413 356.347 353.138C356.504 353.02 356.936 352.725 357.506 352.725C357.585 352.725 357.664 352.725 357.742 352.745C357.86 352.765 358.234 352.824 358.548 353.118C358.843 353.413 358.922 353.806 358.922 354.082C359.079 354.023 359.236 353.983 359.433 353.983C359.511 353.983 359.57 353.983 359.649 354.003C359.767 354.023 360.101 354.062 360.376 354.357C360.828 354.809 360.71 355.457 360.691 355.575L360.612 355.909C360.671 355.89 360.73 355.85 360.769 355.811C360.887 355.693 360.966 355.516 360.985 355.261L361.044 354.455L362.047 355.398L362.086 355.457C362.263 355.811 362.145 356.263 361.732 356.774C361.437 357.148 360.867 357.325 360.003 357.325C359.747 357.325 359.452 357.305 359.138 357.266C359.02 358.229 359.04 359.29 359.04 359.29C359.059 359.683 359.059 360.057 359.079 360.371C359.138 362.12 359.157 362.828 358.607 363.241C358.411 363.378 358.155 363.457 357.9 363.457C357.664 363.457 357.448 363.398 357.251 363.26C357.054 363.123 356.956 362.985 356.917 362.71C356.838 362.946 356.701 363.123 356.504 363.28C356.347 363.516 356.072 363.614 355.777 363.614ZM357.113 356.912C357.035 357.895 357.054 358.838 357.054 358.838C357.074 359.29 357.074 359.703 357.094 360.076C357.094 360.234 357.113 360.371 357.113 360.509C357.172 359.781 357.231 358.838 357.29 357.58C357.29 357.364 357.31 357.167 357.33 356.971C357.251 356.951 357.192 356.931 357.113 356.912ZM359.649 355.949C359.885 355.988 360.081 356.027 360.239 356.027C360.297 356.027 360.356 356.027 360.415 356.008L360.16 355.87C360.081 355.831 360.003 355.811 359.944 355.811C359.924 355.811 359.904 355.811 359.885 355.811C359.865 355.811 359.747 355.85 359.649 355.949ZM357.723 355.3C357.821 355.064 357.959 354.848 358.096 354.691C358.076 354.691 358.076 354.691 358.057 354.691C358.037 354.691 357.998 354.691 357.978 354.691C357.978 354.691 357.782 354.73 357.585 354.946C357.546 354.986 357.487 355.064 357.428 355.202C357.467 355.202 357.664 355.28 357.723 355.3Z" fill="#60A06C"/>
<path opacity="0.34" d="M360.219 361.669C359.766 361.669 359.373 361.531 359.118 361.276C358.744 360.902 358.607 360.214 358.784 359.428C358.961 358.563 359.531 357.403 360.572 356.971C360.671 356.932 361.024 356.794 361.437 356.794C361.811 356.794 362.125 356.912 362.381 357.109C362.872 357.521 362.951 358.229 362.813 358.72C362.675 359.231 362.302 359.566 361.87 359.782C361.909 359.841 361.968 359.919 361.968 360.057C362.007 360.352 361.85 360.823 361.516 361.158C361.221 361.472 360.73 361.669 360.219 361.669ZM361.221 358.347C361.162 358.367 361.103 358.406 361.024 358.465C361.103 358.426 361.162 358.386 361.221 358.347Z" fill="#60A06C"/>
<path opacity="0.34" d="M363.383 361.747C362.931 361.747 362.479 361.59 362.223 361.295C361.85 360.902 361.732 360.273 361.87 359.526C362.066 358.583 362.656 357.777 363.363 357.482C363.619 357.384 363.914 357.325 364.189 357.325C364.641 357.325 364.995 357.462 365.231 357.737C365.663 358.229 365.506 358.917 365.447 359.113C365.329 359.526 365.054 359.841 364.719 360.057C364.778 360.116 364.837 360.214 364.837 360.352C364.857 360.627 364.719 361.079 364.405 361.354C364.169 361.609 363.796 361.747 363.383 361.747Z" fill="#60A06C"/>
<path opacity="0.34" d="M348.995 363.3C348.681 363.3 348.386 363.26 348.091 363.162C347.108 362.867 346.322 362.061 345.87 360.902C345.379 359.644 345.536 358.052 346.244 356.617C345.949 356.676 345.693 356.833 345.457 356.971C345.202 357.128 344.986 357.246 344.75 357.246C344.612 357.246 344.494 357.207 344.376 357.128C344.16 356.951 344.042 356.637 344.062 356.244C344.082 355.772 344.298 355.123 344.828 354.828C345.025 354.711 345.261 354.652 345.516 354.652C346.027 354.652 346.617 354.887 347.226 355.163C347.816 354.494 348.504 354.042 349.212 353.806C349.605 353.688 349.998 353.61 350.332 353.61C350.843 353.61 351.256 353.767 351.511 354.062C352.101 354.73 351.826 355.929 351.216 356.637C350.922 356.971 350.371 357.384 349.388 357.443C349.329 357.443 349.29 357.443 349.231 357.443C348.858 357.443 348.543 357.364 348.189 357.246C348.091 357.226 348.013 357.187 347.934 357.167C347.561 358.484 347.737 359.899 348.366 360.43C348.563 360.587 348.897 360.764 349.251 360.764C349.329 360.764 349.408 360.764 349.467 360.745C349.487 360.745 350.017 360.607 350.116 360.194C350.175 359.998 350.135 359.742 350.017 359.605C349.939 359.506 349.821 359.467 349.703 359.408C349.585 359.369 349.27 359.231 349.31 358.897C349.349 358.524 349.821 358.347 350.234 358.347C350.352 358.347 350.469 358.366 350.587 358.386C351.492 358.622 352.16 359.899 351.944 361.02C351.767 361.963 351.059 362.474 350.823 362.651C350.312 363.103 349.664 363.3 348.995 363.3ZM348.622 355.87C348.858 355.988 349.015 356.047 349.172 356.047C349.212 356.047 349.251 356.047 349.29 356.047C349.624 356.008 350.017 355.811 350.116 355.497C350.175 355.339 350.155 355.182 350.116 355.163C350.116 355.163 350.057 355.123 349.958 355.123C349.723 355.123 349.428 355.222 349.231 355.339L349.212 355.359C348.995 355.477 348.799 355.654 348.622 355.87Z" fill="#60A06C"/>
<path d="M329.753 316.207L330.284 320.531H372.11C373.702 320.531 374.94 321.926 374.743 323.518L370.38 368.725C370.203 370.454 368.906 371.869 367.196 372.184L362.282 373.068H369.279H370.95C372.07 373.068 373.014 372.263 373.151 371.162L380.031 316.226H329.753V316.207Z" fill="#9A3535"/>
<path d="M339.679 373.049L340.465 378.67C340.583 379.515 341.369 380.144 342.313 380.144H367.51C368.454 380.144 369.24 379.515 369.358 378.67L370.144 373.049H339.679Z" stroke="#474747" stroke-miterlimit="10" stroke-linecap="round" stroke-linejoin="round"/>
<path d="M373.151 371.142L380.031 316.207H329.753L336.632 371.142C336.77 372.223 337.713 373.049 338.834 373.049H370.97C372.09 373.049 373.014 372.243 373.151 371.142Z" stroke="#474747" stroke-miterlimit="10" stroke-linecap="round" stroke-linejoin="round"/>
<path d="M381.111 316.207C363.638 316.207 346.145 316.207 328.672 316.207C326.962 316.226 327.198 315.303 327.787 313.553C328.141 312.512 328.141 311.391 327.787 310.369C327.198 308.6 326.962 307.696 328.672 307.716C346.145 307.716 363.638 307.716 381.111 307.716C382.821 307.696 382.585 308.62 381.996 310.369C381.642 311.411 381.642 312.531 381.996 313.553C382.585 315.303 382.821 316.226 381.111 316.207Z" fill="#646464"/>
<path d="M381.996 310.349C382.37 309.209 382.606 308.423 382.271 308.01C382.193 308.266 382.095 308.561 381.996 308.875C381.741 309.622 381.682 310.428 381.78 311.214C381.839 310.919 381.898 310.644 381.996 310.349Z" fill="#7C7C7C"/>
<path d="M328.004 311.214C328.122 310.428 328.063 309.642 327.788 308.875C327.689 308.561 327.591 308.286 327.513 308.01C327.178 308.423 327.395 309.209 327.788 310.349C327.886 310.644 327.965 310.919 328.004 311.214Z" fill="#7C7C7C"/>
<path d="M382.271 314.398C382.075 314.615 381.721 314.732 381.112 314.732C363.638 314.732 346.145 314.732 328.672 314.732C328.063 314.732 327.709 314.634 327.512 314.398C327.178 315.597 327.257 316.207 328.672 316.207C346.145 316.207 363.638 316.207 381.112 316.207C382.527 316.226 382.605 315.597 382.271 314.398Z" fill="#7C7C7C"/>
<path d="M381.996 313.553C381.957 313.455 381.937 313.357 381.917 313.258C381.662 314.182 381.682 315.165 381.976 316.089C382.704 315.794 382.448 314.929 381.996 313.553Z" fill="#646464"/>
<path d="M328.063 312.295C328.259 312.217 329.026 310.31 330.205 310.31C347.678 310.31 362.557 310.31 380.03 310.31C381.445 310.31 381.701 313.18 381.917 313.258C381.917 313.239 381.996 310.369 381.996 310.349C382.585 308.58 382.821 307.676 381.111 307.696C363.658 307.696 346.184 307.696 328.731 307.696C326.962 307.657 327.198 308.58 327.787 310.349C327.807 310.389 328.043 312.276 328.063 312.295Z" fill="#646464"/>
<path d="M327.827 316.089C328.122 315.165 328.141 314.182 327.886 313.258C327.866 313.357 327.827 313.455 327.807 313.553C327.336 314.929 327.08 315.794 327.827 316.089Z" fill="#646464"/>
<path d="M381.111 316.207C363.638 316.207 346.145 316.207 328.672 316.207C326.962 316.226 327.198 315.303 327.787 313.553C328.141 312.512 328.141 311.391 327.787 310.369C327.198 308.6 326.962 307.696 328.672 307.716C346.145 307.716 363.638 307.716 381.111 307.716C382.821 307.696 382.585 308.62 381.996 310.369C381.642 311.411 381.642 312.531 381.996 313.553C382.585 315.303 382.821 316.226 381.111 316.207Z" stroke="#474747" stroke-miterlimit="10" stroke-linecap="round" stroke-linejoin="round"/>
<path d="M379.598 307.696H330.205L330.696 305.966C331.463 303.215 334.097 301.308 337.104 301.308H372.699C375.706 301.308 378.32 303.215 379.107 305.966L379.598 307.696Z" fill="#D6D6D4"/>
<path d="M379.598 307.696H330.205L330.696 305.966C331.463 303.215 334.097 301.308 337.104 301.308H372.699C375.706 301.308 378.32 303.215 379.107 305.966L379.598 307.696Z" fill="#D6D6D4"/>
<path d="M340.563 303.352L374.272 303.333C376.709 303.333 378.203 305.082 378.891 305.298C377.692 303.509 375.038 301.308 372.719 301.308H337.084C334.077 301.308 331.463 303.215 330.677 305.966L330.186 307.696H334.47C335.512 305.416 337.89 303.352 340.563 303.352Z" fill="white"/>
<path d="M379.598 307.696H330.205L330.696 305.966C331.463 303.215 334.097 301.308 337.104 301.308H372.699C375.706 301.308 378.32 303.215 379.107 305.966L379.598 307.696Z" stroke="#474747" stroke-miterlimit="10" stroke-linecap="round" stroke-linejoin="round"/>
<path d="M369.869 301.308H356.385V300.05C356.385 298.596 357.565 297.397 359.039 297.397H367.235C368.689 297.397 369.888 298.576 369.888 300.05V301.308H369.869Z" fill="#D6D6D4"/>
<path d="M369.869 301.308H356.385V300.05C356.385 298.596 357.565 297.397 359.039 297.397H367.235C368.689 297.397 369.888 298.576 369.888 300.05V301.308H369.869Z" fill="#D6D6D4"/>
<path d="M356.405 301.269C356.405 299.873 357.525 298.753 358.921 298.753H367.372C368.65 298.753 369.711 299.716 369.869 300.954V299.932C369.869 298.537 368.748 297.417 367.353 297.417H358.901C357.506 297.417 356.385 298.537 356.385 299.932V301.308H356.405V301.269Z" fill="white"/>
<path d="M353.3 347.458C351.217 347.458 347.443 345.984 346.244 342.033C345.065 338.81 345.576 335.016 347.561 332.167C349.015 330.083 351.001 328.904 353.005 328.904C353.615 328.904 354.224 329.022 354.814 329.238L354.833 329.258L354.853 329.277C355.266 329.513 355.501 329.788 355.58 330.122C355.698 330.692 355.325 331.223 354.833 331.891C353.85 333.248 352.514 335.095 353.831 338.535C355.364 342.505 355.364 346.279 354.42 347.183C354.224 347.36 353.831 347.458 353.3 347.458Z" fill="#874C3A"/>
<path d="M369.869 301.308H356.385V300.05C356.385 298.596 357.565 297.397 359.039 297.397H367.235C368.689 297.397 369.888 298.576 369.888 300.05V301.308H369.869Z" stroke="#474747" stroke-miterlimit="10" stroke-linecap="round" stroke-linejoin="round"/>
<path d="M358.705 347.399C357.938 347.399 357.231 347.104 356.739 346.593C356.326 346.141 356.11 345.571 356.15 344.962C356.248 343.389 355.717 341.896 355.206 340.441C354.734 339.124 354.282 337.866 354.282 336.569C354.263 331.773 357.486 330.26 357.879 330.103C358.135 329.945 358.43 329.867 358.744 329.867C360.022 329.867 361.594 331.125 362.734 333.07C363.5 334.368 365.761 339.026 362.793 344.372C361.712 346.298 360.238 347.399 358.705 347.399Z" fill="#874C3A"/>
<path d="M354.872 329.002C357.192 330.319 351.315 331.93 353.673 338.063C355.285 342.249 355.049 345.63 354.361 346.279C353.673 346.927 348.288 346.161 346.794 341.325C344.357 334.682 349.664 327.056 354.872 329.002Z" fill="#F6F9E4"/>
<path d="M358.253 329.867C358.253 329.867 354.853 331.203 354.872 335.999C354.872 338.672 356.936 341.365 356.74 344.411C356.602 346.534 360.238 347.949 362.656 343.606C366.882 335.94 360.592 328.373 358.253 329.867Z" fill="#F6F9E4"/>
<path d="M352.691 356.814C351.786 357.679 351.747 359.467 352.553 360.116C352.612 360.155 352.907 360.411 353.339 360.391C354.086 360.371 354.656 359.546 354.833 358.878C355.108 357.816 354.538 356.48 353.752 356.342C353.261 356.263 352.828 356.676 352.691 356.814ZM353.889 358.76C353.87 358.819 353.752 359.172 353.477 359.212C353.3 359.231 353.162 359.113 353.143 359.094C352.907 358.878 352.926 358.386 353.162 357.855C353.319 357.62 353.437 357.561 353.516 357.58C353.791 357.58 354.086 358.249 353.889 358.76Z" fill="#F6F9E4"/>
<path d="M355.088 362.691C354.675 362.416 355.029 361.787 355.265 356.44C355.324 354.966 355.639 353.63 356.405 353.099C356.562 353.001 356.995 352.686 357.525 352.765C357.643 352.785 357.899 352.824 358.095 353.04C358.469 353.414 358.351 353.984 358.331 354.023C358.213 353.964 357.997 353.866 357.722 353.905C357.722 353.905 357.407 353.964 357.113 354.278C356.366 355.084 356.444 358.465 356.444 358.465C356.523 361.276 356.661 362.258 356.11 362.651C355.855 362.868 355.403 362.887 355.088 362.691Z" fill="#F6F9E4"/>
<path d="M357.329 362.632C356.975 362.396 357.27 361.845 357.486 357.226C357.545 355.949 357.82 354.789 358.469 354.337C358.607 354.239 358.98 353.983 359.432 354.062C359.53 354.082 359.747 354.121 359.943 354.298C360.258 354.612 360.159 355.104 360.14 355.163C360.041 355.104 359.845 355.025 359.609 355.064C359.609 355.064 359.334 355.104 359.078 355.379C358.43 356.087 358.508 358.995 358.508 358.995C358.567 361.433 358.685 362.278 358.214 362.612C357.978 362.789 357.604 362.808 357.329 362.632Z" fill="#F6F9E4"/>
<path d="M360.631 360.037C360.454 360.077 360.218 360.077 360.042 359.959C359.629 359.664 359.766 358.622 360.277 358.013C360.356 357.934 360.808 357.423 361.221 357.561C361.339 357.6 361.496 357.718 361.496 357.856C361.516 358.19 360.828 358.563 360.218 358.602C359.884 358.622 359.609 358.544 359.452 358.485C359.275 358.74 359.295 358.897 359.314 358.956C359.432 359.33 360.277 359.31 360.395 359.29C360.474 359.29 361.948 359.192 362.223 358.19C362.321 357.816 362.263 357.286 361.909 356.971C361.398 356.539 360.612 356.834 360.513 356.893C359.118 357.443 358.489 359.841 359.196 360.548C359.609 360.961 360.572 360.902 361.044 360.45C361.358 360.136 361.437 359.644 361.339 359.585C361.28 359.585 361.083 359.939 360.631 360.037Z" fill="#F6F9E4"/>
<path d="M363.599 360.293C363.442 360.332 363.225 360.332 363.088 360.234C362.714 359.959 362.872 359.035 363.304 358.504C363.363 358.426 363.697 358.013 363.972 358.111C364.11 358.15 364.208 358.308 364.208 358.445C364.189 358.76 363.658 358.996 363.265 359.035C362.97 359.074 362.714 358.996 362.577 358.937C362.42 359.153 362.439 359.31 362.459 359.349C362.557 359.644 363.127 359.684 363.422 359.644C363.933 359.605 364.7 359.29 364.896 358.603C364.916 358.524 365.073 357.954 364.759 357.6C364.405 357.207 363.736 357.286 363.324 357.443C362.164 357.915 361.633 359.939 362.302 360.627C362.695 361.02 363.56 361.059 363.972 360.686C364.267 360.43 364.326 359.978 364.248 359.919C364.169 359.88 363.992 360.195 363.599 360.293Z" fill="#F6F9E4"/>
<path d="M361.221 354.927C361.201 355.182 361.123 355.497 360.887 355.733C359.531 357.03 354.853 353.394 353.536 354.691C353.241 354.966 353.005 355.595 353.163 355.772C353.241 355.851 353.379 355.811 353.733 355.772C354.047 355.733 354.381 355.752 354.696 355.713C355.482 355.634 356.681 356.106 357.919 356.381C358.234 356.44 360.71 356.951 361.3 356.204C361.378 356.106 361.752 355.615 361.595 355.3C361.457 355.163 361.339 355.045 361.221 354.927Z" fill="#F6F9E4"/>
<path d="M347.462 355.418C348.307 355.831 348.583 356.106 349.133 356.047C349.565 355.988 350.135 355.733 350.292 355.222C350.351 355.025 350.391 354.671 350.214 354.494C349.939 354.2 349.251 354.396 348.858 354.593C348.858 354.593 348.838 354.612 348.818 354.612C347.108 355.536 346.578 359.231 347.954 360.391C348.307 360.686 348.858 360.922 349.408 360.784C349.487 360.764 350.175 360.587 350.351 359.958C350.43 359.644 350.371 359.271 350.175 359.015C349.919 358.72 349.546 358.701 349.565 358.602C349.565 358.504 349.978 358.347 350.351 358.445C351.059 358.622 351.59 359.703 351.413 360.627C351.256 361.413 350.646 361.865 350.45 362.003C349.742 362.514 348.818 362.632 348.032 362.396C346.696 361.983 346.185 360.646 346.067 360.371C345.104 357.895 346.912 354.514 349.172 353.806C349.329 353.748 350.548 353.374 351.059 353.944C351.491 354.435 351.256 355.438 350.764 355.988C350.214 356.617 349.428 356.656 349.211 356.676C348.818 356.696 348.524 356.617 348.13 356.499C347.128 356.224 347.069 355.91 346.519 355.811C345.457 355.654 344.789 356.676 344.435 356.421C344.121 356.185 344.258 355.104 344.848 354.77C345.418 354.435 346.362 354.888 347.462 355.418Z" fill="#F6F9E4"/>
<path d="M370.085 272.769C368.552 274.912 366.862 275.442 365.565 277.938C365.211 278.626 364.169 280.631 364.484 283.049C364.896 286.233 367.294 287.058 367.53 289.928C367.628 291.225 367.275 292.798 365.958 294.645" stroke="#7E7E7E" stroke-miterlimit="10" stroke-linecap="round" stroke-linejoin="round"/>
<path d="M374.999 262.686C376.198 267.659 375.333 270.725 374.311 272.612C372.444 276.052 369.043 277.388 368.807 280.847C368.69 282.479 369.338 283.855 369.869 284.719" stroke="#7E7E7E" stroke-miterlimit="10" stroke-linecap="round" stroke-linejoin="round"/>
<path d="M363.737 274.479C363.737 274.479 361.378 277.231 361.378 279.727" stroke="#7E7E7E" stroke-miterlimit="10" stroke-linecap="round" stroke-linejoin="round"/>
</svg>
