<svg width="422" height="351" viewBox="0 0 422 351" fill="none" xmlns="http://www.w3.org/2000/svg">
<path d="M344.043 347.564H45.8398L157.303 106.326H232.58L344.043 347.564Z" fill="url(#paint0_linear)" fill-opacity="0.15" style="mix-blend-mode:overlay"/>
<path d="M51.334 280.104L55.1136 262.091L74.9807 257.587" stroke="black" stroke-width="4.48" stroke-linecap="round" stroke-linejoin="round"/>
<path d="M113.173 219.336H276.18C278.37 219.336 280.47 220.207 282.019 221.755C283.568 223.304 284.438 225.405 284.438 227.595V335.157H104.916V227.594C104.916 225.405 105.786 223.304 107.334 221.756C108.883 220.207 110.983 219.337 113.173 219.336V219.336Z" fill="#D2DCE6"/>
<path d="M113.173 219.336H276.18C278.37 219.336 280.47 220.207 282.019 221.755C283.568 223.304 284.438 225.405 284.438 227.595V335.157H104.916V227.594C104.916 225.405 105.786 223.304 107.334 221.756C108.883 220.207 110.983 219.337 113.173 219.336V219.336Z" stroke="black" stroke-width="3.36" stroke-linecap="round" stroke-linejoin="round"/>
<path d="M270.925 321.781V232.985H118.428V321.781H270.925Z" fill="#FF5C5C"/>
<path opacity="0.3" d="M206.941 307.615H232.036" stroke="white" stroke-width="3.36" stroke-linecap="round" stroke-linejoin="round"/>
<g opacity="0.3">
<path opacity="0.3" d="M268.121 280.013C268.604 279.983 269.083 280.116 269.481 280.391C269.879 280.666 270.173 281.068 270.315 281.53V276.002C269.785 275.847 269.236 275.767 268.684 275.765H268.121C266.906 275.765 266.299 276.372 266.3 277.585V278.235C266.3 279.406 266.906 280.013 268.121 280.013Z" fill="white"/>
<path opacity="0.3" d="M270.315 306.511C270.17 306.971 269.875 307.37 269.477 307.643C269.08 307.915 268.602 308.047 268.121 308.017C266.906 308.017 266.299 308.624 266.3 309.837V310.488C266.3 311.701 266.907 312.308 268.121 312.309H268.684C269.236 312.306 269.785 312.226 270.315 312.071V306.511Z" fill="white"/>
</g>
<path d="M270.925 321.781V232.985H118.428V321.781H270.925Z" stroke="black" stroke-width="3.36" stroke-linecap="round" stroke-linejoin="round"/>
<path d="M85.1061 335.228H304.248C304.76 335.228 305.251 335.431 305.613 335.793C305.975 336.155 306.179 336.646 306.179 337.158V339.47C306.179 342.03 305.162 344.485 303.352 346.295C301.542 348.105 299.087 349.122 296.527 349.122H92.8275C90.2677 349.122 87.8128 348.105 86.0027 346.295C84.1927 344.485 83.1758 342.03 83.1758 339.47V337.158C83.1758 336.646 83.3792 336.155 83.7412 335.793C84.1032 335.431 84.5942 335.228 85.1061 335.228Z" fill="#E5E5E5"/>
<path d="M296.525 344.777H92.8256C90.5111 344.776 88.2744 343.942 86.5236 342.428C84.7729 340.914 83.6249 338.821 83.2892 336.531C83.2165 336.733 83.1782 336.945 83.1758 337.159V339.471C83.1758 342.03 84.1927 344.485 86.0027 346.295C87.8128 348.106 90.2677 349.122 92.8275 349.122H296.527C299.087 349.122 301.542 348.106 303.352 346.295C305.162 344.485 306.179 342.03 306.179 339.471V337.159C306.176 336.945 306.138 336.733 306.065 336.531C305.73 338.822 304.581 340.915 302.829 342.429C301.078 343.943 298.84 344.777 296.525 344.777V344.777Z" fill="#CFD1D0"/>
<path d="M85.1061 335.228H304.248C304.76 335.228 305.251 335.431 305.613 335.793C305.975 336.155 306.179 336.646 306.179 337.158V339.47C306.179 342.03 305.162 344.485 303.352 346.295C301.542 348.105 299.087 349.122 296.527 349.122H92.8275C90.2677 349.122 87.8128 348.105 86.0027 346.295C84.1927 344.485 83.1758 342.03 83.1758 339.47V337.158C83.1758 336.646 83.3792 336.155 83.7412 335.793C84.1032 335.431 84.5942 335.228 85.1061 335.228Z" stroke="black" stroke-width="3.36" stroke-linecap="round" stroke-linejoin="round"/>
<path d="M174.407 335.157H214.944C214.944 336.181 214.538 337.163 213.814 337.887C213.09 338.611 212.108 339.018 211.084 339.018H178.268C177.244 339.018 176.262 338.611 175.538 337.887C174.814 337.163 174.407 336.181 174.407 335.157Z" fill="#686B6D"/>
<path d="M174.407 335.157H214.944C214.944 336.181 214.538 337.163 213.814 337.887C213.09 338.611 212.108 339.018 211.084 339.018H178.268C177.244 339.018 176.262 338.611 175.538 337.887C174.814 337.163 174.407 336.181 174.407 335.157Z" stroke="black" stroke-width="2.24" stroke-linecap="round" stroke-linejoin="round"/>
<path d="M194.297 229.841C196.429 229.841 198.158 228.112 198.158 225.98C198.158 223.848 196.429 222.119 194.297 222.119C192.165 222.119 190.437 223.848 190.437 225.98C190.437 228.112 192.165 229.841 194.297 229.841Z" fill="#686B6D"/>
<path d="M194.297 229.841C196.429 229.841 198.158 228.112 198.158 225.98C198.158 223.848 196.429 222.119 194.297 222.119C192.165 222.119 190.437 223.848 190.437 225.98C190.437 228.112 192.165 229.841 194.297 229.841Z" stroke="black" stroke-width="2.24" stroke-linecap="round" stroke-linejoin="round"/>
<path d="M37.2876 349.12H60.9826C61.8046 349.12 62.5984 348.821 63.2152 348.277C63.8321 347.734 64.2298 346.985 64.3337 346.169L70.6628 296.511H27.6094L33.939 346.169C34.0428 346.984 34.4401 347.733 35.0565 348.277C35.6729 348.82 36.4661 349.12 37.2876 349.12V349.12Z" fill="#EAD57D"/>
<path d="M34.1957 296.512L39.2175 342.374C39.3208 343.318 39.7687 344.19 40.4754 344.823C41.1821 345.457 42.0977 345.807 43.0468 345.807H64.3824L64.3366 346.169C64.2327 346.985 63.835 347.734 63.2181 348.277C62.6013 348.821 61.8075 349.12 60.9855 349.12H37.2905C36.4686 349.12 35.675 348.821 35.0582 348.277C34.4414 347.734 34.0439 346.985 33.9399 346.169L27.6094 296.512H34.1957Z" fill="#E5C66E"/>
<path d="M37.2876 349.12H60.9826C61.8046 349.12 62.5984 348.821 63.2152 348.277C63.8321 347.734 64.2298 346.985 64.3337 346.169L70.6628 296.511H27.6094L33.939 346.169C34.0428 346.984 34.4401 347.733 35.0565 348.277C35.6729 348.82 36.4661 349.12 37.2876 349.12V349.12Z" stroke="black" stroke-width="3.36" stroke-linecap="round" stroke-linejoin="round"/>
<path d="M69.039 334.824L72.1 310.808H26.1709L29.2319 334.824H69.039Z" fill="#5CBF84"/>
<path d="M69.039 334.824L72.1 310.808H26.1709L29.2319 334.824H69.039Z" fill="#4FB277"/>
<path d="M68.8497 332.05L71.4166 310.808H32.9023L35.267 330.364C35.3233 330.829 35.5478 331.257 35.8982 331.568C36.2486 331.878 36.7006 332.05 37.1689 332.05H68.8497Z" fill="#5CBF84"/>
<path d="M69.039 334.824L72.1 310.808H26.1709L29.2319 334.824H69.039Z" stroke="black" stroke-width="3.36" stroke-linecap="round" stroke-linejoin="round"/>
<path d="M24.8431 296.512H73.4289C76.3606 296.512 78.7373 294.135 78.7373 291.203C78.7373 288.272 76.3606 285.895 73.4289 285.895H24.8431C21.9113 285.895 19.5346 288.272 19.5346 291.203C19.5346 294.135 21.9113 296.512 24.8431 296.512Z" fill="#5CBF84"/>
<path d="M24.8431 296.512H73.4289C76.3606 296.512 78.7373 294.135 78.7373 291.203C78.7373 288.272 76.3606 285.895 73.4289 285.895H24.8431C21.9113 285.895 19.5346 288.272 19.5346 291.203C19.5346 294.135 21.9113 296.512 24.8431 296.512Z" fill="#4FB277"/>
<path d="M30.3335 294.219H74.575C76.8738 294.219 78.7373 292.356 78.7373 290.057C78.7373 287.758 76.8738 285.895 74.575 285.895H30.3335C28.0347 285.895 26.1712 287.758 26.1712 290.057C26.1712 292.356 28.0347 294.219 30.3335 294.219Z" fill="#5CBF84"/>
<path d="M24.8431 296.512H73.4289C76.3606 296.512 78.7373 294.135 78.7373 291.203C78.7373 288.272 76.3606 285.895 73.4289 285.895H24.8431C21.9113 285.895 19.5346 288.272 19.5346 291.203C19.5346 294.135 21.9113 296.512 24.8431 296.512Z" stroke="black" stroke-width="3.36" stroke-linecap="round" stroke-linejoin="round"/>
<path d="M29.832 285.895H68.4389L67.675 280.104H30.5964L29.832 285.895Z" fill="#5CBF84"/>
<path d="M30.5964 280.104H41.9237L39.2425 285.895H29.832L30.5964 280.104Z" fill="#54AF79"/>
<path d="M29.832 285.895H68.4389L67.675 280.104H30.5964L29.832 285.895Z" stroke="black" stroke-width="3.36" stroke-linecap="round" stroke-linejoin="round"/>
<path d="M311.241 349.168C311.263 345.472 312.746 341.935 315.368 339.329C317.989 336.723 321.535 335.26 325.231 335.26C328.927 335.26 332.473 336.723 335.095 339.329C337.716 341.935 339.199 345.472 339.221 349.168H311.241Z" fill="#E5E5E5"/>
<path d="M325.232 344.749C327.232 344.768 329.214 344.359 331.043 343.549C332.872 342.738 334.507 341.545 335.837 340.051C334.525 338.523 332.898 337.296 331.067 336.455C329.237 335.614 327.246 335.179 325.232 335.179C323.217 335.179 321.226 335.614 319.396 336.455C317.565 337.296 315.938 338.523 314.626 340.051C315.956 341.546 317.591 342.738 319.42 343.549C321.249 344.359 323.231 344.768 325.232 344.749V344.749Z" fill="#CFD1D0"/>
<path d="M311.241 349.168C311.263 345.472 312.746 341.935 315.368 339.329C317.989 336.723 321.535 335.26 325.231 335.26C328.927 335.26 332.473 336.723 335.095 339.329C337.716 341.935 339.199 345.472 339.221 349.168H311.241Z" stroke="black" stroke-width="3.36" stroke-linecap="round" stroke-linejoin="round"/>
<g style="mix-blend-mode:multiply" opacity="0.14">
<path d="M217.555 250.188H144.209C142.075 250.188 140.345 251.918 140.345 254.052V310.989C140.345 313.124 142.075 314.854 144.209 314.854H217.555C219.689 314.854 221.419 313.124 221.419 310.989V254.052C221.419 251.918 219.689 250.188 217.555 250.188Z" fill="black"/>
</g>
<path d="M213.774 246.809H140.429C138.295 246.809 136.564 248.539 136.564 250.674V307.611C136.564 309.745 138.295 311.476 140.429 311.476H213.774C215.909 311.476 217.639 309.745 217.639 307.611V250.674C217.639 248.539 215.909 246.809 213.774 246.809Z" fill="#353F49"/>
<path d="M213.774 246.809H140.429C138.295 246.809 136.564 248.539 136.564 250.674V307.611C136.564 309.745 138.295 311.476 140.429 311.476H213.774C215.909 311.476 217.639 309.745 217.639 307.611V250.674C217.639 248.539 215.909 246.809 213.774 246.809Z" stroke="black" stroke-width="2.24" stroke-linecap="round" stroke-linejoin="round"/>
<path d="M140.429 246.809H213.774C214.799 246.809 215.782 247.216 216.507 247.941C217.232 248.666 217.639 249.649 217.639 250.674V256.461H136.564V250.674C136.564 249.649 136.972 248.666 137.696 247.941C138.421 247.216 139.404 246.809 140.429 246.809Z" fill="#EAEEEF"/>
<path d="M140.429 246.809H213.774C214.799 246.809 215.782 247.216 216.507 247.941C217.232 248.666 217.639 249.649 217.639 250.674V256.461H136.564V250.674C136.564 249.649 136.972 248.666 137.696 247.941C138.421 247.216 139.404 246.809 140.429 246.809Z" stroke="black" stroke-width="2.24" stroke-linecap="round" stroke-linejoin="round"/>
<path opacity="0.35" d="M143.482 253.143C144.315 253.143 144.99 252.468 144.99 251.635C144.99 250.802 144.315 250.127 143.482 250.127C142.649 250.127 141.974 250.802 141.974 251.635C141.974 252.468 142.649 253.143 143.482 253.143Z" fill="black"/>
<path opacity="0.35" d="M148.227 253.143C149.06 253.143 149.735 252.468 149.735 251.635C149.735 250.802 149.06 250.127 148.227 250.127C147.394 250.127 146.719 250.802 146.719 251.635C146.719 252.468 147.394 253.143 148.227 253.143Z" fill="black"/>
<path opacity="0.35" d="M152.732 253.143C153.565 253.143 154.24 252.468 154.24 251.635C154.24 250.802 153.565 250.127 152.732 250.127C151.899 250.127 151.224 250.802 151.224 251.635C151.224 252.468 151.899 253.143 152.732 253.143Z" fill="black"/>
<path d="M140.345 259.839H145.653" stroke="#46BB86" stroke-width="1.68" stroke-miterlimit="10"/>
<path d="M147.584 259.839H162.062" stroke="#46BB86" stroke-width="1.68" stroke-miterlimit="10"/>
<path d="M140.345 263.7H162.061" stroke="#389ABE" stroke-width="1.68" stroke-miterlimit="10"/>
<path d="M144.688 267.561H155.304" stroke="#E5C689" stroke-width="1.68" stroke-miterlimit="10"/>
<path d="M157.235 267.561H168.817" stroke="#F2F3F4" stroke-width="1.68" stroke-miterlimit="10"/>
<path d="M150.479 271.421H172.677" stroke="#F2F3F4" stroke-width="1.68" stroke-miterlimit="10"/>
<path d="M150.479 275.282H166.886" stroke="#FFA49F" stroke-width="1.68" stroke-miterlimit="10"/>
<path d="M144.688 279.143H168.817" stroke="#F2F3F4" stroke-width="1.68" stroke-miterlimit="10"/>
<path d="M140.345 282.521H153.375" stroke="#389ABE" stroke-width="1.68" stroke-miterlimit="10"/>
<g opacity="0.3">
<path opacity="0.3" d="M252.612 301.217C252.612 299.309 251.874 297.966 250.401 297.142C249.36 296.578 248.927 296.145 248.927 295.148V293.459C248.927 292.289 249.447 292.029 250.357 291.422C251.874 290.771 252.612 289.385 252.612 287.304V283.619C252.612 280.671 253.695 278.503 255.256 277.593C256.423 276.76 257.811 276.293 259.244 276.249H259.808C261.021 276.249 261.628 276.856 261.628 278.07V278.717C261.628 279.888 261.021 280.495 259.808 280.495C258.119 280.495 257.293 281.709 257.293 284.179V288.731C257.336 289.836 257.061 290.93 256.5 291.883C255.939 292.836 255.116 293.608 254.129 294.107L253.739 294.236V294.323C254.183 294.455 254.597 294.676 254.952 294.974C256.036 295.623 257.293 297.141 257.293 299.785V304.857C257.293 307.285 258.117 308.499 259.808 308.499C261.021 308.499 261.628 309.106 261.628 310.319V310.97C261.628 312.183 261.021 312.79 259.808 312.79H259.244C257.811 312.747 256.423 312.279 255.256 311.446C253.695 310.536 252.612 308.326 252.612 305.421V301.217Z" fill="white"/>
</g>
<path d="M35.1006 324.458L36.0658 323.519C39.7283 326.488 44.2998 328.108 49.0145 328.108C53.7292 328.108 58.3007 326.488 61.9632 323.519L63.1697 324.698" stroke="black" stroke-width="1.68" stroke-linecap="round" stroke-linejoin="round"/>
<path d="M46.0557 319.592C46.0557 319.044 45.8381 318.519 45.4506 318.131C45.0632 317.744 44.5377 317.526 43.9898 317.526V317.526C43.4419 317.526 42.9164 317.744 42.5289 318.131C42.1415 318.519 41.9238 319.044 41.9238 319.592V321.485" stroke="black" stroke-width="1.68" stroke-linecap="round" stroke-linejoin="round"/>
<path d="M52.2148 319.592C52.2148 319.044 52.4325 318.519 52.8199 318.131C53.2074 317.744 53.7329 317.526 54.2808 317.526V317.526C54.8287 317.526 55.3542 317.744 55.7416 318.131C56.1291 318.519 56.3467 319.044 56.3467 319.592V321.485" stroke="black" stroke-width="1.68" stroke-linecap="round" stroke-linejoin="round"/>
<path d="M388.218 286.432H350.673C348.247 286.432 346.281 288.398 346.281 290.823V344.776C346.281 347.202 348.247 349.168 350.673 349.168H388.218C390.643 349.168 392.609 347.202 392.609 344.776V290.823C392.609 288.398 390.643 286.432 388.218 286.432Z" fill="#E5E5E5"/>
<path d="M388.217 286.432H387.661C387.741 286.764 387.782 287.104 387.783 287.445V341.398C387.783 342.563 387.32 343.68 386.496 344.503C385.673 345.327 384.556 345.79 383.391 345.79H346.405C346.633 346.751 347.179 347.607 347.953 348.22C348.728 348.833 349.687 349.167 350.675 349.168H388.22C389.385 349.168 390.502 348.705 391.325 347.882C392.149 347.058 392.611 345.941 392.611 344.776V290.823C392.611 290.246 392.498 289.675 392.277 289.142C392.056 288.609 391.732 288.125 391.324 287.717C390.916 287.309 390.432 286.986 389.898 286.765C389.365 286.545 388.794 286.431 388.217 286.432V286.432Z" fill="#CFD1D0"/>
<path d="M388.218 286.432H350.673C348.247 286.432 346.281 288.398 346.281 290.823V344.776C346.281 347.202 348.247 349.168 350.673 349.168H388.218C390.643 349.168 392.609 347.202 392.609 344.776V290.823C392.609 288.398 390.643 286.432 388.218 286.432Z" stroke="black" stroke-width="3.36" stroke-linecap="round" stroke-linejoin="round"/>
<path d="M377.166 282.791H373.305V281.343C373.305 280.319 372.898 279.337 372.174 278.613C371.45 277.889 370.468 277.482 369.444 277.482C368.42 277.482 367.438 277.889 366.714 278.613C365.99 279.337 365.584 280.319 365.584 281.343V282.791H361.723C360.699 282.791 359.717 283.198 358.993 283.922C358.269 284.646 357.862 285.628 357.862 286.652C357.862 287.675 358.269 288.657 358.993 289.381C359.717 290.105 360.699 290.512 361.723 290.512H377.166C378.19 290.512 379.172 290.105 379.896 289.381C380.62 288.657 381.026 287.675 381.026 286.652C381.026 285.628 380.62 284.646 379.896 283.922C379.172 283.198 378.19 282.791 377.166 282.791Z" fill="#F7B66F"/>
<path d="M378.961 283.235C379.117 283.807 379.14 284.408 379.026 284.99C378.912 285.572 378.665 286.12 378.305 286.591C377.944 287.062 377.48 287.443 376.947 287.705C376.415 287.967 375.83 288.102 375.237 288.1H359.794C359.169 288.1 358.553 287.948 358 287.656C358.221 288.475 358.705 289.199 359.378 289.715C360.051 290.232 360.876 290.512 361.724 290.513H377.167C378.029 290.512 378.867 290.222 379.546 289.69C380.224 289.158 380.705 288.413 380.912 287.576C381.118 286.739 381.038 285.856 380.684 285.069C380.331 284.283 379.724 283.637 378.961 283.235Z" fill="#EDA762"/>
<path d="M371.375 278.931V280.378H373.179C373.044 279.857 372.802 279.369 372.468 278.947C372.134 278.525 371.715 278.177 371.238 277.927C371.328 278.254 371.374 278.591 371.375 278.931V278.931Z" fill="#EDA762"/>
<path d="M377.166 282.791H373.305V281.343C373.305 280.319 372.898 279.337 372.174 278.613C371.45 277.889 370.468 277.482 369.444 277.482C368.42 277.482 367.438 277.889 366.714 278.613C365.99 279.337 365.584 280.319 365.584 281.343V282.791H361.723C360.699 282.791 359.717 283.198 358.993 283.922C358.269 284.646 357.862 285.628 357.862 286.652C357.862 287.675 358.269 288.657 358.993 289.381C359.717 290.105 360.699 290.512 361.723 290.512H377.166C378.19 290.512 379.172 290.105 379.896 289.381C380.62 288.657 381.026 287.675 381.026 286.652C381.026 285.628 380.62 284.646 379.896 283.922C379.172 283.198 378.19 282.791 377.166 282.791Z" stroke="black" stroke-width="3.36" stroke-linecap="round" stroke-linejoin="round"/>
<path d="M369.444 304.508C371.665 304.508 373.466 302.707 373.466 300.486C373.466 298.265 371.665 296.465 369.444 296.465C367.223 296.465 365.423 298.265 365.423 300.486C365.423 302.707 367.223 304.508 369.444 304.508Z" fill="#8EAFBF"/>
<path d="M369.444 304.508C371.665 304.508 373.466 302.707 373.466 300.486C373.466 298.265 371.665 296.465 369.444 296.465C367.223 296.465 365.423 298.265 365.423 300.486C365.423 302.707 367.223 304.508 369.444 304.508Z" stroke="black" stroke-width="3.36" stroke-linecap="round" stroke-linejoin="round"/>
<path d="M354.11 312.873H363.762" stroke="black" stroke-width="3.36" stroke-linecap="round" stroke-linejoin="round"/>
<path d="M354.11 325.983H363.762" stroke="black" stroke-width="3.36" stroke-linecap="round" stroke-linejoin="round"/>
<path d="M354.11 339.093H363.762" stroke="black" stroke-width="3.36" stroke-linecap="round" stroke-linejoin="round"/>
<path d="M370.139 312.356L372.655 315.703L380.185 310.042" stroke="#8BAFC1" stroke-width="2.24" stroke-linecap="round" stroke-linejoin="round"/>
<path d="M370.139 325.466L372.655 328.814L380.185 323.152" stroke="#8BAFC1" stroke-width="2.24" stroke-linecap="round" stroke-linejoin="round"/>
<path d="M397.388 313.286L392.608 313.951L396.865 344.541L401.645 343.876L397.388 313.286Z" fill="#3BBC88"/>
<path d="M397.388 313.286L392.608 313.951L396.865 344.541L401.645 343.876L397.388 313.286Z" stroke="black" stroke-width="2.24" stroke-linecap="round" stroke-linejoin="round"/>
<path d="M401.645 343.876L396.865 344.541L399.92 348.988L401.645 343.876Z" fill="#E5E5E5"/>
<path d="M401.645 343.876L396.865 344.541L399.92 348.988L401.645 343.876Z" stroke="black" stroke-width="2.24" stroke-linecap="round" stroke-linejoin="round"/>
<path d="M395.622 308.427L392.756 308.826L393.422 313.604L396.288 313.204L395.622 308.427Z" fill="#E5E5E5"/>
<path d="M395.622 308.427L392.756 308.826L393.422 313.604L396.288 313.204L395.622 308.427Z" stroke="black" stroke-width="2.23904" stroke-linecap="round" stroke-linejoin="round"/>
<path d="M401.71 325.357C401.169 324.467 400.786 323.49 400.577 322.469C400.044 319.847 401.36 318.348 400.649 316.856C400.365 316.261 400.227 315.449 398.096 315.141" stroke="black" stroke-width="2.24" stroke-linecap="round" stroke-linejoin="round"/>
<path d="M407.573 349.168H420" stroke="black" stroke-width="3.36" stroke-linecap="round" stroke-linejoin="round"/>
<path d="M76.3184 349.168H402.144" stroke="black" stroke-width="3.36" stroke-linecap="round" stroke-linejoin="round"/>
<path d="M18.6094 349.168H70.664" stroke="black" stroke-width="3.36" stroke-linecap="round" stroke-linejoin="round"/>
<path d="M2 349.168H13.1801" stroke="black" stroke-width="3.36" stroke-linecap="round" stroke-linejoin="round"/>
<path d="M194.941 118.828C201.338 118.828 206.524 113.642 206.524 107.246C206.524 100.849 201.338 95.6636 194.941 95.6636C188.545 95.6636 183.359 100.849 183.359 107.246C183.359 113.642 188.545 118.828 194.941 118.828Z" fill="white"/>
<path d="M161.694 109.861C161.105 109.859 160.523 109.732 159.986 109.489C159.45 109.245 158.971 108.891 158.582 108.449C158.193 108.007 157.901 107.487 157.727 106.924C157.554 106.361 157.501 105.768 157.574 105.184C159.825 86.0693 175.697 71.2539 194.942 71.2539C214.188 71.2539 230.059 86.0693 232.31 105.184C232.383 105.768 232.33 106.362 232.156 106.925C231.982 107.488 231.691 108.007 231.302 108.449C230.912 108.891 230.433 109.246 229.897 109.489C229.36 109.732 228.778 109.859 228.189 109.861H161.694Z" fill="#F7B66F"/>
<path d="M201.732 71.7095C201.608 71.6897 201.482 71.6757 201.357 71.6573C200.918 71.5927 200.477 71.5343 200.034 71.4851C199.832 71.4624 199.63 71.444 199.427 71.4247C199.059 71.39 198.691 71.3586 198.322 71.3374C198.108 71.3248 197.895 71.3089 197.68 71.2988C197.104 71.2718 196.522 71.2539 195.943 71.2539C195.364 71.2539 194.785 71.2713 194.212 71.2988C193.947 71.3113 193.684 71.3321 193.42 71.3499C193.135 71.3697 192.851 71.39 192.567 71.4165C192.22 71.4479 191.874 71.4855 191.53 71.527C191.362 71.5473 191.192 71.57 191.026 71.5927C173.641 73.9202 159.983 88.404 158.446 106.459C158.408 106.891 158.46 107.325 158.598 107.736C158.737 108.146 158.96 108.523 159.252 108.843C159.544 109.163 159.9 109.419 160.296 109.594C160.692 109.769 161.12 109.86 161.554 109.861H230.331C230.76 109.862 231.186 109.774 231.58 109.603C231.974 109.432 232.328 109.181 232.62 108.866C232.913 108.552 233.137 108.18 233.278 107.774C233.42 107.369 233.476 106.938 233.443 106.51C231.953 88.7332 218.716 74.3994 201.732 71.7095ZM171.341 99.2096C172.983 93.2445 176.046 87.7663 180.268 83.2445C184.491 78.7226 189.747 75.292 195.586 73.2465C201.43 75.2879 206.692 78.7168 210.919 83.2389C215.147 87.7611 218.214 93.2414 219.857 99.2096C220.066 99.981 220.094 100.79 219.938 101.574C219.783 102.358 219.449 103.095 218.962 103.729C218.476 104.363 217.849 104.875 217.132 105.228C216.415 105.58 215.626 105.761 214.827 105.759H176.372C175.573 105.762 174.784 105.58 174.066 105.228C173.349 104.876 172.722 104.363 172.236 103.729C171.749 103.096 171.415 102.358 171.26 101.574C171.104 100.79 171.132 99.981 171.341 99.2096V99.2096Z" fill="#EFAA65"/>
<path d="M162.725 109.861C162.132 109.859 161.546 109.732 161.005 109.487C160.465 109.242 159.983 108.885 159.59 108.44C159.198 107.995 158.905 107.471 158.73 106.904C158.555 106.338 158.502 105.74 158.575 105.151C160.842 86.0505 176.707 71.2539 195.941 71.2539C215.175 71.2539 231.04 86.0505 233.305 105.151C233.378 105.74 233.326 106.338 233.15 106.905C232.975 107.471 232.682 107.995 232.29 108.44C231.898 108.885 231.415 109.242 230.875 109.487C230.335 109.732 229.748 109.859 229.155 109.861H162.725Z" stroke="black" stroke-width="3.36" stroke-linecap="round" stroke-linejoin="round"/>
<path d="M194.941 9V71.2536" stroke="black" stroke-width="3.36" stroke-linejoin="round"/>
<g filter="url(#filter0_d)">
<circle cx="195" cy="9" r="4" fill="#292929"/>
</g>
<defs>
<filter id="filter0_d" x="186" y="0" width="18" height="18" filterUnits="userSpaceOnUse" color-interpolation-filters="sRGB">
<feFlood flood-opacity="0" result="BackgroundImageFix"/>
<feColorMatrix in="SourceAlpha" type="matrix" values="0 0 0 0 0 0 0 0 0 0 0 0 0 0 0 0 0 0 127 0" result="hardAlpha"/>
<feOffset/>
<feGaussianBlur stdDeviation="2.5"/>
<feComposite in2="hardAlpha" operator="out"/>
<feColorMatrix type="matrix" values="0 0 0 0 0 0 0 0 0 0 0 0 0 0 0 0 0 0 0.25 0"/>
<feBlend mode="normal" in2="BackgroundImageFix" result="effect1_dropShadow"/>
<feBlend mode="normal" in="SourceGraphic" in2="effect1_dropShadow" result="shape"/>
</filter>
<linearGradient id="paint0_linear" x1="194.941" y1="102.972" x2="194.941" y2="356.078" gradientUnits="userSpaceOnUse">
<stop stop-color="white"/>
<stop offset="0.093" stop-color="white" stop-opacity="0.864"/>
<stop offset="0.284" stop-color="white" stop-opacity="0.605"/>
<stop offset="0.466" stop-color="white" stop-opacity="0.389"/>
<stop offset="0.633" stop-color="white" stop-opacity="0.221"/>
<stop offset="0.784" stop-color="white" stop-opacity="0.1"/>
<stop offset="0.911" stop-color="white" stop-opacity="0.026"/>
<stop offset="1" stop-color="white" stop-opacity="0"/>
</linearGradient>
</defs>
</svg>
