<svg width="232" height="49" viewBox="0 0 232 49" fill="none" xmlns="http://www.w3.org/2000/svg">
<path d="M15.6 11C18.1333 11 20.3333 11.4267 22.2 12.28C24.0667 13.1067 25.5067 14.3067 26.52 15.88C27.5333 17.4267 28.04 19.2533 28.04 21.36C28.04 23.4667 27.5333 25.2933 26.52 26.84C25.5067 28.3867 24.0667 29.5867 22.2 30.44C20.3333 31.2667 18.1333 31.68 15.6 31.68H10.72V39H2.8V11H15.6ZM15.12 25.44C16.7467 25.44 17.9733 25.0933 18.8 24.4C19.6267 23.68 20.04 22.6667 20.04 21.36C20.04 20.0533 19.6267 19.04 18.8 18.32C17.9733 17.6 16.7467 17.24 15.12 17.24H10.72V25.44H15.12ZM44.1416 31.56H39.8216V39H31.9016V11H44.7016C47.2349 11 49.4349 11.4267 51.3016 12.28C53.1682 13.1067 54.6082 14.3067 55.6216 15.88C56.6349 17.4267 57.1416 19.2533 57.1416 21.36C57.1416 23.3867 56.6616 25.16 55.7016 26.68C54.7682 28.1733 53.4216 29.3467 51.6616 30.2L57.7016 39H49.2216L44.1416 31.56ZM49.1416 21.36C49.1416 20.0533 48.7282 19.04 47.9016 18.32C47.0749 17.6 45.8482 17.24 44.2216 17.24H39.8216V25.44H44.2216C45.8482 25.44 47.0749 25.0933 47.9016 24.4C48.7282 23.68 49.1416 22.6667 49.1416 21.36ZM75.6309 39.56C72.6709 39.56 70.0043 38.9333 67.6309 37.68C65.2843 36.4267 63.4309 34.6933 62.0709 32.48C60.7376 30.2667 60.0709 27.7733 60.0709 25C60.0709 22.2267 60.7376 19.7333 62.0709 17.52C63.4309 15.3067 65.2843 13.5733 67.6309 12.32C70.0043 11.0667 72.6709 10.44 75.6309 10.44C78.5909 10.44 81.2443 11.0667 83.5909 12.32C85.9643 13.5733 87.8176 15.3067 89.1509 17.52C90.5109 19.7333 91.1909 22.2267 91.1909 25C91.1909 27.7733 90.5109 30.2667 89.1509 32.48C87.8176 34.6933 85.9643 36.4267 83.5909 37.68C81.2443 38.9333 78.5909 39.56 75.6309 39.56ZM75.6309 33C77.0443 33 78.3243 32.6667 79.4709 32C80.6176 31.3333 81.5243 30.4 82.1909 29.2C82.8576 27.9733 83.1909 26.5733 83.1909 25C83.1909 23.4267 82.8576 22.04 82.1909 20.84C81.5243 19.6133 80.6176 18.6667 79.4709 18C78.3243 17.3333 77.0443 17 75.6309 17C74.2176 17 72.9376 17.3333 71.7909 18C70.6443 18.6667 69.7376 19.6133 69.0709 20.84C68.4043 22.04 68.0709 23.4267 68.0709 25C68.0709 26.5733 68.4043 27.9733 69.0709 29.2C69.7376 30.4 70.6443 31.3333 71.7909 32C72.9376 32.6667 74.2176 33 75.6309 33ZM100.908 17.28H92.3084V11H117.388V17.28H108.828V39H100.908V17.28ZM134.068 39.56C131.108 39.56 128.442 38.9333 126.068 37.68C123.722 36.4267 121.868 34.6933 120.508 32.48C119.175 30.2667 118.508 27.7733 118.508 25C118.508 22.2267 119.175 19.7333 120.508 17.52C121.868 15.3067 123.722 13.5733 126.068 12.32C128.442 11.0667 131.108 10.44 134.068 10.44C137.028 10.44 139.682 11.0667 142.028 12.32C144.402 13.5733 146.255 15.3067 147.588 17.52C148.948 19.7333 149.628 22.2267 149.628 25C149.628 27.7733 148.948 30.2667 147.588 32.48C146.255 34.6933 144.402 36.4267 142.028 37.68C139.682 38.9333 137.028 39.56 134.068 39.56ZM134.068 33C135.482 33 136.762 32.6667 137.908 32C139.055 31.3333 139.962 30.4 140.628 29.2C141.295 27.9733 141.628 26.5733 141.628 25C141.628 23.4267 141.295 22.04 140.628 20.84C139.962 19.6133 139.055 18.6667 137.908 18C136.762 17.3333 135.482 17 134.068 17C132.655 17 131.375 17.3333 130.228 18C129.082 18.6667 128.175 19.6133 127.508 20.84C126.842 22.04 126.508 23.4267 126.508 25C126.508 26.5733 126.842 27.9733 127.508 29.2C128.175 30.4 129.082 31.3333 130.228 32C131.375 32.6667 132.655 33 134.068 33Z" fill="#323232"/>
<g filter="url(#filter0_d)">
<path d="M162.184 17.114V15.114H160.184V17.114H162.184ZM162.184 22.966H160.184V24.966H162.184V22.966ZM173.926 22.966H175.926V20.966H173.926V22.966ZM173.926 28.78V30.78H175.926V28.78H173.926ZM162.184 28.78V26.78H160.184V28.78H162.184ZM162.184 37.9V39.9H164.184V37.9H162.184ZM154.66 37.9H152.66V39.9H154.66V37.9ZM154.66 11.3V9.30002H152.66V11.3H154.66ZM175.522 11.3H177.522V9.30002H175.522V11.3ZM175.522 17.114V19.114H177.522V17.114H175.522ZM160.184 17.114V22.966H164.184V17.114H160.184ZM162.184 24.966H173.926V20.966H162.184V24.966ZM171.926 22.966V28.78H175.926V22.966H171.926ZM173.926 26.78H162.184V30.78H173.926V26.78ZM160.184 28.78V37.9H164.184V28.78H160.184ZM162.184 35.9H154.66V39.9H162.184V35.9ZM156.66 37.9V11.3H152.66V37.9H156.66ZM154.66 13.3H175.522V9.30002H154.66V13.3ZM173.522 11.3V17.114H177.522V11.3H173.522ZM175.522 15.114H162.184V19.114H175.522V15.114ZM181.131 11.3V9.30002H179.131V11.3H181.131ZM188.655 11.3H190.655V9.30002H188.655V11.3ZM188.655 37.9V39.9H190.655V37.9H188.655ZM181.131 37.9H179.131V39.9H181.131V37.9ZM181.131 13.3H188.655V9.30002H181.131V13.3ZM186.655 11.3V37.9H190.655V11.3H186.655ZM188.655 35.9H181.131V39.9H188.655V35.9ZM183.131 37.9V11.3H179.131V37.9H183.131ZM201.912 36.646L200.97 38.4102L200.978 38.4146L201.912 36.646ZM196.63 31.706L194.917 32.738L194.921 32.7456L194.926 32.7531L196.63 31.706ZM196.63 17.494L194.926 16.447L194.921 16.4545L194.917 16.462L196.63 17.494ZM201.912 12.554L200.978 10.7855L200.97 10.7899L201.912 12.554ZM217.074 12.554L216.132 14.3182L216.14 14.3226L217.074 12.554ZM222.356 17.494L220.643 18.526L220.647 18.5336L220.652 18.5411L222.356 17.494ZM222.356 31.706L220.652 30.659L220.647 30.6665L220.643 30.674L222.356 31.706ZM217.074 36.646L216.14 34.8775L216.132 34.8819L217.074 36.646ZM213.16 31.25L214.165 32.979L214.165 32.979L213.16 31.25ZM215.744 28.59L217.492 29.5613L217.497 29.5532L217.501 29.5451L215.744 28.59ZM215.744 20.648L213.987 21.603L213.991 21.6112L213.995 21.6193L215.744 20.648ZM213.16 17.95L214.165 16.221L214.165 16.221L213.16 17.95ZM205.864 17.95L204.859 16.221L204.859 16.221L205.864 17.95ZM203.28 20.648L205.028 21.6193L205.033 21.6112L205.037 21.6031L203.28 20.648ZM203.28 28.59L201.523 29.5451L201.527 29.5532L201.531 29.5613L203.28 28.59ZM205.864 31.25L206.869 29.521L206.869 29.521L205.864 31.25ZM209.512 36.432C206.991 36.432 204.784 35.901 202.846 34.8775L200.978 38.4146C203.549 39.7724 206.408 40.432 209.512 40.432V36.432ZM202.854 34.8819C200.93 33.8542 199.435 32.4517 198.334 30.659L194.926 32.7531C196.408 35.1657 198.435 37.0565 200.97 38.4102L202.854 34.8819ZM198.343 30.674C197.278 28.9057 196.73 26.8987 196.73 24.6H192.73C192.73 27.5707 193.449 30.301 194.917 32.738L198.343 30.674ZM196.73 24.6C196.73 22.3014 197.278 20.2943 198.343 18.526L194.917 16.462C193.449 18.8991 192.73 21.6293 192.73 24.6H196.73ZM198.334 18.5411C199.435 16.7484 200.93 15.3459 202.854 14.3182L200.97 10.7899C198.435 12.1435 196.408 14.0344 194.926 16.447L198.334 18.5411ZM202.846 14.3226C204.784 13.2991 206.991 12.768 209.512 12.768V8.76802C206.408 8.76802 203.549 9.42764 200.978 10.7855L202.846 14.3226ZM209.512 12.768C212.033 12.768 214.224 13.2992 216.132 14.3182L218.016 10.7899C215.465 9.42754 212.615 8.76802 209.512 8.76802V12.768ZM216.14 14.3226C218.086 15.3501 219.571 16.7476 220.643 18.526L224.069 16.462C222.607 14.0351 220.571 12.1393 218.008 10.7855L216.14 14.3226ZM220.652 18.5411C221.737 20.3073 222.294 22.309 222.294 24.6H226.294C226.294 21.6217 225.559 18.8861 224.06 16.447L220.652 18.5411ZM222.294 24.6C222.294 26.891 221.737 28.8927 220.652 30.659L224.06 32.7531C225.559 30.314 226.294 27.5783 226.294 24.6H222.294ZM220.643 30.674C219.571 32.4524 218.086 33.8499 216.14 34.8775L218.008 38.4146C220.571 37.0608 222.607 35.165 224.069 32.738L220.643 30.674ZM216.132 34.8819C214.224 35.9009 212.033 36.432 209.512 36.432V40.432C212.615 40.432 215.465 39.7725 218.016 38.4102L216.132 34.8819ZM209.512 34.2C211.184 34.2 212.75 33.8015 214.165 32.979L212.155 29.521C211.391 29.9652 210.525 30.2 209.512 30.2V34.2ZM214.165 32.979C215.577 32.1581 216.69 31.0047 217.492 29.5613L213.995 27.6187C213.531 28.4554 212.921 29.0752 212.155 29.521L214.165 32.979ZM217.501 29.5451C218.313 28.051 218.694 26.3853 218.694 24.6H214.694C214.694 25.8041 214.441 26.7984 213.987 27.635L217.501 29.5451ZM218.694 24.6C218.694 22.8157 218.313 21.1549 217.492 19.6767L213.995 21.6193C214.441 22.4212 214.694 23.395 214.694 24.6H218.694ZM217.501 19.693C216.702 18.2233 215.588 17.0484 214.165 16.221L212.155 19.679C212.91 20.1183 213.519 20.7421 213.987 21.603L217.501 19.693ZM214.165 16.221C212.75 15.3985 211.184 15 209.512 15V19C210.525 19 211.391 19.2349 212.155 19.679L214.165 16.221ZM209.512 15C207.84 15 206.273 15.3985 204.859 16.221L206.869 19.679C207.633 19.2349 208.498 19 209.512 19V15ZM204.859 16.221C203.435 17.0484 202.321 18.2233 201.523 19.693L205.037 21.6031C205.505 20.7421 206.114 20.1183 206.869 19.679L204.859 16.221ZM201.531 19.6767C200.71 21.1549 200.33 22.8157 200.33 24.6H204.33C204.33 23.395 204.583 22.4212 205.028 21.6193L201.531 19.6767ZM200.33 24.6C200.33 26.3853 200.711 28.051 201.523 29.5451L205.037 27.635C204.582 26.7984 204.33 25.8041 204.33 24.6H200.33ZM201.531 29.5613C202.333 31.0047 203.447 32.1581 204.859 32.979L206.869 29.521C206.102 29.0752 205.493 28.4554 205.028 27.6187L201.531 29.5613ZM204.859 32.979C206.273 33.8015 207.84 34.2 209.512 34.2V30.2C208.498 30.2 207.633 29.9652 206.869 29.521L204.859 32.979Z" fill="black"/>
</g>
<defs>
<filter id="filter0_d" x="147.66" y="3.76801" width="83.6338" height="41.664" filterUnits="userSpaceOnUse" color-interpolation-filters="sRGB">
<feFlood flood-opacity="0" result="BackgroundImageFix"/>
<feColorMatrix in="SourceAlpha" type="matrix" values="0 0 0 0 0 0 0 0 0 0 0 0 0 0 0 0 0 0 127 0" result="hardAlpha"/>
<feOffset/>
<feGaussianBlur stdDeviation="2.5"/>
<feComposite in2="hardAlpha" operator="out"/>
<feColorMatrix type="matrix" values="0 0 0 0 0.266667 0 0 0 0 0.305882 0 0 0 0 0.34902 0 0 0 0.7 0"/>
<feBlend mode="normal" in2="BackgroundImageFix" result="effect1_dropShadow"/>
<feBlend mode="normal" in="SourceGraphic" in2="effect1_dropShadow" result="shape"/>
</filter>
</defs>
</svg>
