<svg width="14" height="13" viewBox="0 0 14 13" fill="none" xmlns="http://www.w3.org/2000/svg">
<path d="M11.7496 1.92648C11.457 1.63282 11.1092 1.39981 10.7263 1.24083C10.3434 1.08184 9.93294 1 9.51836 1C9.10377 1 8.69327 1.08184 8.31038 1.24083C7.92749 1.39981 7.57975 1.63282 7.28711 1.92648L6.83794 2.38148L6.38877 1.92648C6.09613 1.63282 5.74839 1.39981 5.3655 1.24083C4.98261 1.08184 4.57211 1 4.15752 1C3.74294 1 3.33243 1.08184 2.94955 1.24083C2.56666 1.39981 2.21892 1.63282 1.92627 1.92648C0.689608 3.16315 0.613774 5.25148 2.17127 6.83815L6.83794 11.5048L11.5046 6.83815C13.0621 5.25148 12.9863 3.16315 11.7496 1.92648Z" fill="#FF0000" stroke="#FF0000" stroke-width="2" stroke-linecap="round" stroke-linejoin="round"/>
</svg>
